<svg width="16" height="16" viewBox="0 0 16 16" xmlns="http://www.w3.org/2000/svg"><title>Icons/airplane</title><path d="M15.422 3.775c.817-.82.762-2.226-.13-3.125A2.19 2.19 0 0 0 13.727 0c-.59 0-1.144.23-1.562.649L9.524 3.302l-6.917-.796a1.002 1.002 0 0 0-.823.288l-.995 1a1.002 1.002 0 0 0 .263 1.6l4.27 2.131-1.124 1.13L1.556 8.5a1.001 1.001 0 0 0-.767.293l-.498.5a1 1 0 0 0 .196 1.564l3.048 1.82 1.569 2.81a.998.998 0 0 0 1.582.217l.498-.5a1 1 0 0 0 .29-.723l-.046-2.554.941-.934 2.207 3.99a.999.999 0 0 0 1.585.221l.995-1a1 1 0 0 0 .288-.782l-.54-7.06 2.518-2.588zM6.424 11.51l.054 2.971-.496.499-1.694-3.034L1.02 9.994l.496-.499 3.08.18L7.01 7.251 1.517 4.51l.992-.997 7.375.85 2.973-2.988a1.199 1.199 0 0 1 1.702 0c.47.473.593 1.246.123 1.718l-8.258 8.416zm5.134 3.13L8.85 9.873l3.206-3.065.539 6.818-1.038 1.011z" fill="#2E2929"/></svg>