<svg xmlns="http://www.w3.org/2000/svg" width="1075" height="1024" viewBox="0 0 1075 1024"><title/><path d="M981.217 894.228H93.455V320.885h888.039l-.268 573.343zm-595.632-668.9v-95.556h303.808v95.556H385.585zm642.671 0H782.875V81.993c0-26.382-23.212-47.778-49.029-47.778H341.131c-25.814 0-49.013 21.397-49.013 47.778v143.335H46.737c-25.814 0-46.734 15.887-46.734 42.269v674.409c0 26.382 20.933 47.778 46.734 47.778h981.221c25.814 0 46.734-21.381 46.734-47.749l.32-673.038c0-12.675-4.926-23.457-13.684-32.415-8.761-8.973-20.657-11.258-33.057-11.258z"/></svg>