<svg width="18" height="16" viewBox="0 0 18 16" xmlns="http://www.w3.org/2000/svg" xmlns:xlink="http://www.w3.org/1999/xlink"><title>Icons/icon-bags-white</title><defs><path d="M19.704 7.5c.194 0 .381.036.519.177a.71.71 0 0 1 .215.508l-.005 10.565c0 .414-.329.75-.734.75H4.296a.742.742 0 0 1-.734-.75V8.164c0-.415.329-.664.734-.664h3.852V5.25c0-.414.364-.75.77-.75h6.164c.405 0 .77.336.77.75V7.5h3.852zM18.966 18l.004-9H5.03v9h13.936zM9.616 7.5h4.769V6h-4.77v1.5z" id="a"/></defs><g transform="translate(-3 -4)" fill="none" fill-rule="evenodd"><mask id="b" fill="#fff"><use xlink:href="#a"/></mask><use fill="#2E2929" xlink:href="#a"/><g mask="url(#b)" fill="#FFF"><path d="M0 0h24v24H0z"/></g></g></svg>