<svg width="28" height="37" viewBox="0 0 28 37" xmlns="http://www.w3.org/2000/svg"><title>Icons/business-pin</title><path d="M14.937 9.606L17.53 23.39a.88.88 0 0 1-.161.692l-2.667 3.542a.88.88 0 0 1-1.406 0l-2.667-3.542a.88.88 0 0 1-.161-.692l2.594-13.785-2.433-3.231a.88.88 0 0 1 .703-1.41h5.334a.88.88 0 0 1 .703 1.41l-2.433 3.23zm8.024-5.621c2.784 2.476 4.239 6.2 4.239 10.712 0 4.304-2.074 9.09-5.53 14.07a57.806 57.806 0 0 1-3.829 4.91 45.396 45.396 0 0 1-1.957 2.132 2.655 2.655 0 0 1-3.768 0c-.448-.45-1.13-1.18-1.957-2.132a57.806 57.806 0 0 1-3.829-4.91C2.874 23.787.8 19.001.8 14.697c0-4.513 1.455-8.236 4.24-10.712C7.355 1.925 10.54.8 14 .8c3.46 0 6.644 1.124 8.96 3.185l-.797.896.798-.896zm-1.595 1.793C19.505 4.123 16.89 3.2 14 3.2c-2.89 0-5.505.923-7.366 2.578-2.236 1.99-3.434 5.054-3.434 8.92 0 3.703 1.9 8.087 5.102 12.7a55.432 55.432 0 0 0 3.669 4.705c.79.91 1.436 1.6 1.848 2.015a.255.255 0 0 0 .363 0 43.117 43.117 0 0 0 1.847-2.015A55.432 55.432 0 0 0 19.7 27.4c3.2-4.615 5.1-9 5.1-12.703 0-3.865-1.198-6.93-3.434-8.92l.797-.896-.797.897z" fill="#F05145"/></svg>