<svg xmlns="http://www.w3.org/2000/svg" width="1280" height="1024" viewBox="0 0 1280 1024"><title/><path d="M1199.96 75.852v151.704h-1120V75.852h1120zm0 872.296h-1120V265.481h1120v682.667zm-200-493.037h80v-75.852h-80v75.852zm-200 0h80v-75.852h-80v75.852zm-200 0h80v-75.852h-80v75.852zm-200 0h80v-75.852h-80v75.852zm-200 0h80v-75.852h-80v75.852zm560 227.556h160V530.963h-160v151.704zm240-37.926h80v-75.852h-80v75.852zm-400 0h80v-75.852h-80v75.852zm-200 0h80v-75.852h-80v75.852zm-200 0h80v-75.852h-80v75.852zm400 189.629h80v-75.852h-80v75.852zm-200 0h80v-75.852h-80v75.852zm-200 0h80v-75.852h-80v75.852zm680-189.629h-80v-75.852h80v75.852zM79.96 0C35.84 0 0 33.944 0 75.852v872.296C0 990.056 35.84 1024 80 1024h1120c44.2 0 80-33.944 80-75.852V75.852C1280 33.944 1244.2 0 1200 0H79.96z"/></svg>