<svg xmlns="http://www.w3.org/2000/svg" width="1024" height="1024" viewBox="0 0 1024 1024"><title/><path d="M681.951 618.975c17.386 17.386 17.386 45.579 0 62.965-8.693 8.693-20.079 13.045-31.477 13.045s-22.784-4.352-31.477-13.045L480.523 543.489a44.543 44.543 0 0 1-13.045-31.488V246.663c0-24.587 19.935-44.522 44.522-44.522s44.522 19.935 44.522 44.522v246.895l125.429 125.418zM512 934.957C278.784 934.957 89.043 745.216 89.043 512S278.784 89.043 512 89.043c233.227 0 422.957 189.741 422.957 422.957S745.228 934.957 512 934.957zM512 0C229.688 0 0 229.688 0 512s229.688 512 512 512c282.323 0 512-229.688 512-512S794.323 0 512 0z"/></svg>