<svg xmlns="http://www.w3.org/2000/svg" width="1047" height="1024" viewBox="0 0 1047 1024"><title/><path fill="none" stroke="#000" stroke-width="46.545" stroke-linejoin="round" d="M46.545 139.636h651.636m.001 674.909H46.546m651.636-209.456v302.548c0 51.413-41.678 93.091-93.091 93.091H116.364c-51.413 0-93.091-41.678-93.091-93.091V116.364c0-51.413 41.678-93.091 93.091-93.091h488.727c51.413 0 93.091 41.678 93.091 93.091v209.455"/><path fill="none" stroke="#000" stroke-width="46.545" stroke-linejoin="round" d="M395.636 907.636c0 12.853-10.42 23.273-23.273 23.273s-23.273-10.42-23.273-23.273 10.42-23.273 23.273-23.273 23.273 10.42 23.273 23.273zm418.909-372.363L680.071 403.829c-22.721-22.721-59.56-22.721-82.281 0-22.721 22.721-22.721 59.56 0 82.281l181.019 181.019s-77.718 132.87 12.463 240.506m-93.09-698.18L930.909 418.91l46.545 349.091 46.545 116.364"/></svg>