<svg xmlns="http://www.w3.org/2000/svg" width="1394" height="1024" viewBox="0 0 1394 1024"><title/><path d="M1361.975 965.427H26.284c-15.993 0-29.008 13.021-29.008 29.064s13.015 29.021 29.008 29.021h1335.694c16.037 0 29.052-12.98 29.052-29.021s-13.018-29.064-29.054-29.064zM8.078 389.204L337.973 655.73c5.189 4.254 11.654 6.468 18.206 6.468 3.359 0 6.721-.596 9.952-1.746l931.917-339.355c4.339-1.552 8.167-4.107 11.314-7.446.977-1.065 24.925-26.744 46.362-60.127 32.068-49.915 42.363-91.743 30.494-124.337-11.866-32.575-46.572-58.022-103.229-75.615-37.942-11.765-72.735-16.063-74.181-16.234-4.508-.553-9.103-.022-13.442 1.552L848.117 165.335 429.758 3.105c-6.593-2.533-13.867-2.617-20.46-.212L238.694 65.041c-9.784 3.532-16.845 11.999-18.715 22.19a29.15 29.15 0 0 0 9.868 27.278l227.815 192.997-104.207 37.937-144.234-67.295a29.116 29.116 0 0 0-22.202-.978L16.374 339.313c-9.824 3.573-16.97 12.193-18.715 22.512-1.745 10.341 2.254 20.807 10.421 27.381zM418.913 61.23L936.68 261.972 626.948 374.759 305.56 102.508l113.353-41.279zM195.566 335.885l144.278 67.295a29.116 29.116 0 0 0 22.202.978L508.7 350.733l93.576 79.254c5.36 4.51 11.994 6.871 18.759 6.871 3.359 0 6.678-.575 9.912-1.746l398.204-144.975c11.354-4.148 18.968-14.894 19.096-27s-7.274-23.021-18.544-27.384l-99.361-38.531 278.214-101.319c47.979 6.958 113.993 28.149 123.096 53.147 4.976 13.701-4.127 40.745-24.331 72.383-13.527 21.169-28.668 39.212-35.942 47.553L361.664 600.242 84.553 376.31l111.012-40.426z"/></svg>