<svg xmlns="http://www.w3.org/2000/svg" width="970" height="1024" viewBox="0 0 970 1024"><title/><path d="M268.995 545.622l43.762 6.15c-41.228 94.073-130.139 162.492-236.162 174.827 48.421 112.195 144.124 199.42 261.971 236.2 11.388-130.88 138.556-234.048 294.111-234.048 71.029 0 135.393 22.312 186.26 58.164 27.458-42.769 46.565-91.148 57.194-142.521h43.781C880.18 860.306 691.347 1024 463.963 1024 207.729 1024 0 816.271 0 560.037h42.178c0 43.697 6.706 85.875 19.107 125.565 91.119-6.855 168.96-62.043 207.71-139.98zm21.627-160.233c-11.942-61.249-46.23-114.507-93.818-151.434-26.066 21.384-49.18 46.059-69.51 73.011H75.372c82.796-126.873 225.781-210.892 388.59-210.892v42.178c-85.707 0-165.424 25.855-232.066 69.932 54.17 45.604 91.986 109.99 102.54 183.363l-43.815-6.158zm173.341 596.433c134.001 0 253.324-63.015 330.637-160.742-43.992-30.832-100.047-50.15-161.923-50.15-136.152 0-247.208 90.093-252.565 202.457 27.121 5.483 55.127 8.436 83.851 8.436zM78.072 391.323c-11.81 26.826-20.921 55.001-26.91 84.357H8.013c5.399-29.188 13.539-57.363 24.084-84.357h45.975z"/><path fill="none" stroke="#000" stroke-width="53.895" stroke-linecap="round" stroke-linejoin="round" d="M943.158 261.327c0 179.231-229.053 358.463-229.053 358.463S485.052 441.42 485.052 261.327c0-129.444 102.55-234.379 229.053-234.379s229.053 104.935 229.053 234.379z"/><path fill="none" stroke="#000" stroke-width="26.947" stroke-linecap="round" stroke-linejoin="round" d="M808.421 261.327c0 53.301-42.227 96.509-94.316 96.509s-94.316-43.209-94.316-96.509c0-53.301 42.227-96.509 94.316-96.509s94.316 43.209 94.316 96.509z"/></svg>