<svg width="36" height="38" viewBox="0 0 36 38" xmlns="http://www.w3.org/2000/svg"><title>Icons/globe</title><g fill="none" fill-rule="evenodd"><path d="M9.982 20.248l1.624.228a10.97 10.97 0 0 1-8.764 6.488 15.728 15.728 0 0 0 9.722 8.765c.423-4.857 5.142-8.686 10.914-8.686 2.636 0 5.025.828 6.912 2.159 1.02-1.587 1.728-3.383 2.123-5.289h1.624C32.663 31.925 25.655 38 17.217 38 7.71 38 0 30.291 0 20.783h1.565c0 1.621.25 3.186.71 4.66a9.41 9.41 0 0 0 7.707-5.195zm.803-5.946a9.405 9.405 0 0 0-3.482-5.62 15.781 15.781 0 0 0-2.58 2.71H2.798c3.073-4.709 8.379-7.827 14.42-7.827V5.13c-3.18 0-6.138.96-8.611 2.596 2.01 1.692 3.413 4.081 3.805 6.804l-1.626-.228zm6.432 22.133c4.973 0 9.401-2.339 12.27-5.965-1.632-1.144-3.713-1.861-6.009-1.861-5.052 0-9.173 3.343-9.372 7.513a15.68 15.68 0 0 0 3.111.313zM2.897 14.522a15.402 15.402 0 0 0-.998 3.13H.297c.2-1.083.503-2.129.894-3.13h1.706z" fill="#FFF"/><g transform="translate(18 1)" stroke="#FDFDFD" stroke-linecap="round" stroke-linejoin="round"><path d="M17 8.698C17 15.348 8.5 22 8.5 22S0 15.38 0 8.698C0 3.894 3.806 0 8.5 0S17 3.894 17 8.698z" stroke-width="2"/><ellipse cx="8.5" cy="8.698" rx="3.5" ry="3.581"/></g></g></svg>