<svg xmlns="http://www.w3.org/2000/svg" width="819" height="1024" viewBox="0 0 819 1024"><title/><path d="M162.075 952.558V652.979c0-39.447-31.659-71.442-70.692-71.442s-70.692 31.994-70.692 71.442v299.579c0 39.447 31.659 71.442 70.692 71.442s70.692-31.994 70.692-71.442zm318.153 0V362.175c0-39.447-31.659-71.442-70.692-71.442-39.046 0-70.692 31.994-70.692 71.442v590.383c0 39.447 31.647 71.442 70.692 71.442 39.035 0 70.692-31.994 70.692-71.442zM727.617 1024c-39.035 0-70.692-31.994-70.692-71.442V71.442C656.925 31.995 688.584 0 727.617 0s70.692 31.994 70.692 71.442v881.116c0 39.447-31.659 71.442-70.692 71.442z"/></svg>