<svg xmlns="http://www.w3.org/2000/svg" width="1130" height="1024" viewBox="0 0 1130 1024"><title/><path d="M40.489 862.031c-14.751 14.309-22.127 32.186-22.127 53.65 0 20.562 7.375 37.774 22.127 51.629s33.19 20.791 55.317 20.791h470.23c23.971 0 42.877-7.153 56.701-21.454s20.742-32.637 20.742-54.986c0-22.349-8.301-42.024-24.897-59.007l-301.5-312.484c-34.117-35.763-61.086-71.747-80.908-107.962s-29.731-69.517-29.731-99.914c0-40.235 14.751-75.103 44.253-104.606s63.618-44.254 102.34-44.254c26.741 0 53.71 8.719 80.908 26.156s51.865 40.456 73.994 69.066c16.596 21.454 37.805 32.186 63.618 32.186 20.282 0 38.951-7.597 56.014-22.8s25.585-32.186 25.585-50.967c0-13.415-4.612-27.049-13.834-40.908s-23.054-29.727-41.493-47.61c-35.035-33.974-75.609-61.247-121.705-81.806s-90.359-30.849-132.769-30.849c-60.852 0-114.33 12.52-160.427 37.552s-81.599 59.458-106.496 103.27c-24.897 43.812-37.344 93.431-37.344 148.87 0 54.543 14.98 110.646 44.951 168.315s70.307 112.877 121.018 165.631l175.647 181.056H95.799c-22.127 0-40.565 7.153-55.317 21.454z"/><path d="M1089.51 862.031c14.751 14.31 22.127 32.186 22.127 53.651 0 20.562-7.375 37.774-22.127 51.628s-33.19 20.792-55.317 20.792H563.961c-23.971 0-42.879-7.153-56.701-21.454s-20.741-32.638-20.741-54.986 8.302-42.024 24.898-59.007l301.501-312.484c34.118-35.763 61.087-71.746 80.908-107.963s29.73-69.517 29.73-99.914c0-40.235-14.751-75.103-44.252-104.606s-63.618-44.253-102.34-44.253c-26.742 0-53.71 8.719-80.908 26.156s-51.865 40.456-73.995 69.065c-16.596 21.454-37.806 32.186-63.618 32.186-20.282 0-38.951-7.596-56.015-22.8s-25.585-32.186-25.585-50.968c0-13.416 4.612-27.049 13.835-40.909s23.055-29.727 41.493-47.61c35.035-33.974 75.61-61.247 121.705-81.806s90.36-30.85 132.769-30.85c60.852 0 114.331 12.521 160.427 37.552s81.599 59.458 106.497 103.271c24.898 43.812 37.344 93.431 37.344 148.871 0 54.543-14.98 110.647-44.952 168.316s-70.308 112.877-121.019 165.633L749.294 840.599h284.905c22.127 0 40.564 7.153 55.317 21.454z"/></svg>