<svg width="32" height="29" viewBox="0 0 32 29" xmlns="http://www.w3.org/2000/svg" xmlns:xlink="http://www.w3.org/1999/xlink"><title>Icons/heart</title><defs><path d="M30.373 23.425c.418.406.627.913.627 1.521 0 .584-.21 1.072-.627 1.465-.419.393-.942.589-1.57.589H15.472c-.68 0-1.216-.203-1.608-.608-.392-.406-.588-.926-.588-1.56 0-.633.235-1.191.705-1.673l8.55-8.86c.967-1.014 1.731-2.035 2.294-3.062.562-1.026.843-1.97.843-2.833 0-1.14-.419-2.13-1.255-2.966-.837-.837-1.804-1.255-2.902-1.255-.758 0-1.523.247-2.294.742-.772.494-1.47 1.147-2.098 1.958-.47.609-1.072.913-1.804.913-.575 0-1.105-.216-1.589-.647-.483-.43-.725-.912-.725-1.445 0-.38.13-.767.392-1.16.262-.393.654-.843 1.177-1.35a11.838 11.838 0 0 1 3.45-2.32C19.328.293 20.583 0 21.785 0c1.726 0 3.242.355 4.55 1.065 1.307.71 2.313 1.686 3.019 2.928s1.059 2.65 1.059 4.221c0 1.547-.425 3.137-1.275 4.773-.85 1.635-1.993 3.2-3.431 4.696l-4.98 5.134h8.078c.627 0 1.15.203 1.569.608z" id="a"/></defs><g fill="none" fill-rule="evenodd"><path d="M.627 24.425C.21 24.831 0 25.338 0 25.946c0 .584.21 1.072.627 1.465.419.393.942.589 1.57.589h13.332c.68 0 1.216-.203 1.608-.608.392-.406.588-.926.588-1.56 0-.633-.235-1.191-.705-1.673L8.47 15.3c-.967-1.014-1.731-2.035-2.294-3.062-.562-1.026-.843-1.97-.843-2.833 0-1.14.419-2.13 1.255-2.966.837-.837 1.804-1.255 2.902-1.255.758 0 1.523.247 2.294.742.772.494 1.47 1.147 2.098 1.958.47.609 1.072.913 1.804.913.575 0 1.105-.216 1.589-.647.483-.43.725-.912.725-1.445 0-.38-.13-.767-.392-1.16-.262-.393-.654-.843-1.177-1.35a11.838 11.838 0 0 0-3.45-2.32C11.672 1.293 10.417 1 9.215 1c-1.726 0-3.242.355-4.55 1.065-1.307.71-2.313 1.686-3.019 2.928S.588 7.643.588 9.214c0 1.547.425 3.137 1.275 4.773.85 1.635 1.993 3.2 3.431 4.696l4.98 5.134H2.197c-.627 0-1.15.203-1.569.608z" fill="#F05145"/><g transform="translate(0 1)"><use fill="#F05145" xlink:href="#a"/><path stroke="#FDFDFD" d="M21.907 22.317h6.897c.755 0 1.403.251 1.917.75.516.5.779 1.137.779 1.88 0 .72-.266 1.34-.785 1.828-.514.482-1.16.725-1.911.725H15.47c-.81 0-1.476-.252-1.968-.76-.485-.503-.728-1.148-.728-1.908 0-.766.287-1.449.846-2.02l8.547-8.859c.938-.983 1.677-1.97 2.217-2.956.524-.958.782-1.822.782-2.593 0-1.007-.365-1.869-1.109-2.612-.745-.745-1.586-1.109-2.548-1.109-.658 0-1.33.218-2.024.663-.722.462-1.38 1.076-1.973 1.843-.564.73-1.31 1.107-2.2 1.107-.701 0-1.348-.263-1.92-.773C12.808 7 12.5 6.388 12.5 5.704c0-.485.163-.966.476-1.437.284-.426.698-.902 1.245-1.432A12.338 12.338 0 0 1 17.816.418c1.369-.61 2.692-.918 3.968-.918 1.806 0 3.404.374 4.788 1.125 1.388.754 2.463 1.797 3.216 3.12.75 1.32 1.124 2.813 1.124 4.47 0 1.63-.446 3.299-1.331 5.002-.872 1.68-2.045 3.283-3.516 4.814l-4.158 4.286z"/></g></g></svg>