<svg xmlns="http://www.w3.org/2000/svg" width="1707" height="1024" viewBox="0 0 1707 1024"><title/><path d="M912.028 229.192c40.217 3.703 75.184-26.582 78.6-67.126s-26.23-76.226-66.193-79.708a826.924 826.924 0 0 0-70.934-3.058c-460.735 0-835.586 386.6-835.586 861.804 0 40.691 32.534 73.684 72.66 73.684s72.66-32.992 72.66-73.684c0-393.95 309.657-714.437 690.267-714.437 19.51 0 39.2.848 58.528 2.524zm551.832 123.311c-27.157-29.953-73.114-31.905-102.668-4.365-29.536 27.558-31.461 74.163-4.305 104.115 120.524 132.907 186.88 306.506 186.88 488.854 0 40.691 32.534 73.684 72.66 73.684s72.66-32.992 72.66-73.684c0-219.393-79.981-428.415-225.227-588.603zm-123.249-223.87L988.666 898.001c-31.043 78.952-85.102 126-145.047 126-48.61 0-91.37-25.089-114.384-67.107-25.812-47.121-23.052-107.007 7.212-156.338l460.608-750.597c22.852-37.211 70.281-49.958 108.282-29.141 38.001 20.834 53.459 68.065 35.276 107.818z"/></svg>