<svg width="176" height="36" viewBox="0 0 176 36" xmlns="http://www.w3.org/2000/svg"><title>Icons/options</title><g fill="none" fill-rule="evenodd"><g fill-rule="nonzero" fill="#000"><path d="M11 23.996a1 1 0 0 0-1 .996 1 1 0 0 0 2 0 .999.999 0 0 0-1-.996z"/><path d="M46.176 15.639c-1.733-1.584-4.736-1.632-10.614-1.634-.465-.7-1.446-1.994-3.07-3.276C30.35 9.037 26.618 7.02 21 7.02c-5.617 0-9.354 2.016-11.5 3.706-1.63 1.282-2.614 2.575-3.08 3.276H5.243c-.078-.02-.41-.02-.487 0H3a1 1 0 0 0-.706.292l-2 1.994a.997.997 0 0 0-.294.706v7.002c0 .278.117.543.321.733.249.228 2.489 2.238 4.66 2.238H6.41a5.006 5.006 0 0 0 9.183 0l16.816-.002a5.005 5.005 0 0 0 9.183 0h5.41c.55 0 .999-.445.999-.997 0-5.767 0-8.663-1.824-10.33zM31.172 12.23A13.287 13.287 0 0 1 33.045 14H20V9.04c.33-.016.662-.024 1-.024 4.008 0 7.43 1.082 10.172 3.216zm-20.355 0C12.853 10.65 15.26 9.647 18 9.232v4.769H8.937a13.358 13.358 0 0 1 1.88-1.772zm-7.402 3.765H4v.997H2.414l1-.997zM11 27.984c-1.654 0-3-1.341-3-2.992a3 3 0 0 1 6 0 2.999 2.999 0 0 1-3 2.992zm25.999 0a3 3 0 0 1-3-2.992 3 3 0 1 1 6 0 2.998 2.998 0 0 1-3 2.992zm5-3.012c-.011-2.74-2.25-4.964-5-4.964-2.748 0-4.987 2.223-4.998 4.964H16c-.013-2.74-2.25-4.964-5-4.964-2.749 0-4.987 2.223-4.999 4.964h-1.02c-.985 0-2.296-.888-2.98-1.435v-4.55h3c.552 0 1-.446 1-.996v-1.995h28.917a.785.785 0 0 0 .084.004c5.351 0 8.386 0 9.684.993h-1.699a.998.998 0 1 0 0 1.995h2.71c.27 1.35.299 3.31.302 5.984h-4z"/><path d="M36.999 23.996a.999.999 0 1 0 0 1.996 1 1 0 0 0 1.002-1 1 1 0 0 0-1.002-.996zM23 17.99h-2a.998.998 0 1 0 0 1.995h2a.998.998 0 0 0 0-1.995z"/></g><text font-family="NunitoSans-Bold, Nunito Sans" font-size="18" font-weight="bold" fill="#2E2929"><tspan x="58" y="23">+</tspan></text><text font-family="NunitoSans-Bold, Nunito Sans" font-size="18" font-weight="bold" fill="#2E2929"><tspan x="122" y="23">+</tspan></text><path d="M171.42 30.094a.968.968 0 0 0 .006-.094v-8.586c2.972-2.291 4.524-5.29 4.524-8.805 0-2.134-.863-4.086-2.493-5.643a9.856 9.856 0 0 0-1.551-1.207l.071-.082.02-.022 1.779-2.2c.014-.018.029-.037.042-.057.53-.798.618-1.65.244-2.398a2.439 2.439 0 0 0-.752-.883l-.001.002a.756.756 0 0 0-1.161.63c0 .249.121.468.308.604l-.008-.006c.002.003.183.137.278.353.04.091.16.364-.149.845l-1.746 2.159-.252.286a10.06 10.06 0 0 0-4.87-1.274h-.013c-4.199 0-6.1 2.41-6.18 2.514a.748.748 0 0 0 .15 1.058l5.413 3.988-5.852 6.687-4.748-2.918a.756.756 0 0 0-1.038.244.746.746 0 0 0 .245 1.031l4.538 2.789-4.88 5.576c-1.198.025-2.135.184-2.787.472a2.53 2.53 0 0 0-.189.09l-1.03-1.025a.758.758 0 0 0-1.067 0 .746.746 0 0 0 0 1.06l1.508 1.5a.756.756 0 0 0 1.171-.131c.055-.044.3-.213.968-.336l-1.42 1.623-.006.008-.027.033a.547.547 0 0 0-.075.122l-.016.033a.189.189 0 0 0-.013.033c-.004.012-.01.024-.013.035l-.01.034a.446.446 0 0 0-.014.07c-.002.014-.006.027-.007.041 0 .01 0 .02-.002.03a.544.544 0 0 0-.002.045l-.001.009V30c0 .031.003.062.006.093A3.008 3.008 0 0 0 148.05 33c0 1.654 1.354 3 3.016 3a3.012 3.012 0 0 0 3.016-3 3.007 3.007 0 0 0-2.268-2.906c.003-.031.007-.062.007-.094v-.927a.757.757 0 0 0 .386.108h17.711V30c0 .031.002.062.007.093a3.007 3.007 0 0 0-2.27 2.906c0 1.654 1.354 3 3.017 3a3.01 3.01 0 0 0 3.016-3 3.008 3.008 0 0 0-2.268-2.906zm.006-22.852c1.207.844 3.016 2.573 3.016 5.367 0 2.01-.582 3.823-1.731 5.393-.37.506-.799.987-1.285 1.444V7.242zM152.574 33c0 .828-.676 1.5-1.508 1.5a1.505 1.505 0 0 1-1.508-1.5c0-.826.676-1.5 1.508-1.5s1.508.674 1.508 1.5zm8.701-26.393c.718-.569 2.148-1.39 4.42-1.39h.012a8.594 8.594 0 0 1 3.856.936l-3.49 3.989-4.798-3.535zm8.643 21.075h-17.196l1.313-1.5h15.883v1.5zm0-3h-5.19c1.46-.44 2.81-.971 4.019-1.589.408-.208.798-.425 1.171-.65v2.239zm0-4.026c-.569.393-1.189.76-1.86 1.102-3.317 1.694-7.771 2.704-12.683 2.892l14.543-16.62v12.624zm.754 13.844a1.505 1.505 0 0 1-1.508-1.5c0-.826.676-1.5 1.508-1.5s1.508.674 1.508 1.5c0 .828-.677 1.5-1.508 1.5zm-20.36-1.5c0 .415.338.75.754.75a.753.753 0 0 0 .755-.75.752.752 0 0 0-.755-.749.752.752 0 0 0-.754.75zm20.36-.749a.75.75 0 1 0 0 1.5.753.753 0 0 0 .754-.75.752.752 0 0 0-.754-.75z" fill-rule="nonzero" fill="#080808"/><path d="M79.199 2.199a.7.7 0 0 1 .51-.197c.056.001 1.4.048 3.533.527 3.526.793 6.519 2.156 8.41 3.16 3.834 2.037 7.367 4.786 10.502 8.17 2.642 2.854 5.003 6.167 7.057 9.895l2.309 2.238a.654.654 0 0 1 0 .943.699.699 0 0 1-.59.187 66.09 66.09 0 0 1 1.009 2.248c.213.504-.141 1.018-.919 1.851-.15.163-.304.32-.44.458l.487.473a.654.654 0 0 1 0 .943.699.699 0 0 1-.488.195.696.696 0 0 1-.485-.195l-.488-.472c-.127.118-.268.248-.415.378-.942.834-1.323.997-1.66.997a.823.823 0 0 1-.306-.057 68.432 68.432 0 0 1-2.319-.979.656.656 0 0 1-.192.573.7.7 0 0 1-.973 0l-2.308-2.24c-3.84-1.989-7.255-4.277-10.196-6.836-3.49-3.037-6.325-6.461-8.427-10.178C79.22 7.932 79.008 2.914 79 2.691a.654.654 0 0 1 .199-.492zm4.818 11.441c2.026 3.584 4.765 6.89 8.139 9.828 4.175 3.633 9.344 6.71 15.363 9.148.246-.162.69-.54 1.116-.936l-2.43-2.356a.654.654 0 0 1 0-.944.705.705 0 0 1 .972 0l2.43 2.357c.43-.435.803-.853.964-1.083-2.515-5.84-5.69-10.853-9.44-14.903C98.1 11.48 94.689 8.823 90.99 6.86c-3.286-1.747-6.197-2.612-8.06-3.031-.5-.113-.952-.2-1.35-.267l22.679 21.991a.651.651 0 0 1 0 .943.693.693 0 0 1-.486.195.692.692 0 0 1-.486-.195L80.608 4.503c.07.389.16.83.279 1.323.783 3.272 2.135 6.056 3.13 7.814z" fill="#000" fill-rule="nonzero"/></g></svg>