<svg width="18" height="14" viewBox="0 0 18 14" xmlns="http://www.w3.org/2000/svg" xmlns:xlink="http://www.w3.org/1999/xlink"><title>Icons/icon-persons-white</title><defs><path d="M17.672 11.318a1.575 1.575 0 0 0-2.183-1.45.596.596 0 0 1-.462-1.097c.34-.145.702-.219 1.074-.219a2.766 2.766 0 0 1 2.758 2.766 2.765 2.765 0 0 1-2.758 2.766c-.79 0-1.542-.34-2.066-.934a.597.597 0 0 1 .051-.84.592.592 0 0 1 .838.05c.298.339.727.533 1.177.533.866 0 1.571-.706 1.571-1.575zM21 16.574a.588.588 0 0 1-.593.588h-2.644a.595.595 0 0 1 0-1.191h1.76c-.286-.397-.768-.71-1.357-1.036a.592.592 0 0 1 .572-1.036c.844.466 2.262 1.427 2.262 2.675zm-15.775.588c.671-.507 1.796-1.079 3.018-1.503l1.352.823a.789.789 0 0 0 .82 0l1.353-.823c1.222.424 2.347.996 3.018 1.503H5.225zm6.684-3.13a.79.79 0 0 0-.65.079l-1.253.763-1.255-.763a.79.79 0 0 0-.65-.078C6.906 14.413 3 15.823 3 17.956c0 .438.354.794.791.794H16.22a.793.793 0 0 0 .791-.794c0-2.133-3.905-3.542-5.102-3.923zm-1.903-7.194a2.607 2.607 0 0 1 0 5.215 2.607 2.607 0 0 1 0-5.215zm0 6.804a4.194 4.194 0 0 0 4.183-4.196 4.194 4.194 0 0 0-4.183-4.196 4.194 4.194 0 0 0-4.184 4.196 4.195 4.195 0 0 0 4.184 4.196z" id="a"/></defs><g transform="translate(-3 -5)" fill="none" fill-rule="evenodd"><mask id="b" fill="#fff"><use xlink:href="#a"/></mask><use fill="#2E2929" xlink:href="#a"/><g mask="url(#b)" fill="#FFF"><path d="M0 0h24v24H0z"/></g></g></svg>