<svg xmlns="http://www.w3.org/2000/svg" width="1103" height="1024" viewBox="0 0 1103 1024"><title/><path d="M899.059 470.223c0-53.215-43.189-96.499-96.263-96.499-13.017 0-25.635 2.557-37.504 7.59-18.509 7.86-39.838-.842-47.645-19.406-7.82-18.578.837-39.978 19.332-47.823 20.87-8.868 43.017-13.36 65.818-13.36 93.189 0 168.993 76.031 168.993 169.492s-75.807 169.492-168.993 169.492c-48.373 0-94.519-20.863-126.601-57.226-13.311-15.098-11.918-38.164 3.129-51.523 15.02-13.36 38.014-11.96 51.317 3.136 18.289 20.728 44.595 32.615 72.154 32.615 53.075 0 96.263-43.285 96.263-96.499zm203.938 322.082c0 20.157-16.278 36-36.366 36H904.613c-20.087 0-36.366-16.352-36.366-36.496 0-20.157 16.278-36.496 36.366-36.496h107.927c-17.588-24.329-47.088-43.527-83.219-63.458-17.603-9.706-24.02-31.388-14.348-49.05 9.659-17.689 31.78-24.114 49.383-14.402 51.782 28.553 138.649 87.4 138.649 163.909zm-966.675 35.997c41.137-31.048 110.054-66.105 184.969-92.082l82.837 50.429c15.467 9.403 34.849 9.403 50.286 0l82.849-50.429c74.919 25.977 143.825 61.036 184.976 92.082H136.321zm409.603-191.727c-13.318-4.219-27.831-2.507-39.79 4.77l-76.858 46.788-76.858-46.788a48.383 48.383 0 0 0-39.79-4.77C239.287 659.92-.005 746.25-.005 876.968c0 26.871 21.707 48.662 48.483 48.662h761.61c26.773 0 48.483-21.791 48.483-48.662 0-130.719-239.293-217.044-312.634-240.393zm-116.651-440.88c87.888 0 159.39 71.683 159.39 159.783 0 88.116-71.501 159.791-159.39 159.791S269.87 443.586 269.87 355.478c0-88.103 71.516-159.783 159.404-159.783zm0 416.898c141.354 0 256.36-115.341 256.36-257.118 0-141.763-115.006-257.105-256.36-257.105-141.369 0-256.372 115.341-256.372 257.105 0 141.777 115.006 257.118 256.372 257.118z"/></svg>