<svg xmlns="http://www.w3.org/2000/svg" width="1062" height="1024" viewBox="0 0 1062 1024"><title/><path d="M689.954 682.334C479.683 892.64 243.926 949.802 203.721 930.438L100.777 812.127c.034-.114.068-.228.114-.34l148.181-117.38 39.854 59.911a44.286 44.286 0 0 0 2.51 3.419c13.481 16.661 33.356 26.497 55.958 27.678 22.034 1.181 88.974 4.68 269.648-176.03 44.68-44.692 180.651-180.686 175.983-269.649-1.193-22.624-11.016-42.5-27.666-55.993a43.344 43.344 0 0 0-3.419-2.51l-59.922-39.876 117.368-148.17c.125-.046.25-.091.386-.137l118.242 102.967c19.364 40.228-37.774 275.975-248.057 486.316zM1003.01 132.28a45.239 45.239 0 0 0-2.294-2.135L878.658 23.85C861.872 7.882 838.169 0 813.33 2.192c-22.147 1.931-43.567 11.778-58.775 26.997a46.656 46.656 0 0 0-3.464 3.896l-119.9 151.361c-31.301 33.641-30.585 86.498 2.135 119.264a45.94 45.94 0 0 0 6.974 5.713l61.307 40.807c-4.872 21.25-36.866 82.92-148.805 194.894C440.852 657.097 379.17 689.103 357.92 693.986l-40.785-61.307a44.99 44.99 0 0 0-5.713-6.974c-32.766-32.755-85.624-33.47-119.252-2.146L40.821 743.448a46.378 46.378 0 0 0-3.941 3.521C2.319 781.598.093 837.954 31.621 871.072L137.87 993.153a41.23 41.23 0 0 0 2.135 2.306c20.988 20.988 52.471 28.541 86.952 28.541 62.272 0 134.29-24.669 171.724-39.387 72.358-28.473 214.757-97.254 355.509-238.03 104.318-104.341 188.84-230.625 237.983-355.58 22.874-58.162 69.734-199.812 10.835-258.724z"/></svg>