<svg width="58" height="75" viewBox="0 0 58 75" xmlns="http://www.w3.org/2000/svg" xmlns:xlink="http://www.w3.org/1999/xlink"><title>pin-gif</title><defs><radialGradient fx="50%" fy="50%" gradientTransform="matrix(0 1 -.78847 0 .894 0)" id="a"><stop offset="0%"/><stop stop-opacity="0" offset="100%"/></radialGradient><radialGradient fx="50%" fy="50%" gradientTransform="matrix(0 1 -.78847 0 .894 0)" id="b"><stop offset="0%"/><stop stop-opacity="0" offset="100%"/></radialGradient><path d="M44.527 6.299C39.915 2.238 33.512 0 26.5 0 19.488 0 13.085 2.238 8.473 6.299 2.929 11.18 0 18.599 0 27.757c0 19.947 23.23 43.32 24.22 44.304A3.23 3.23 0 0 0 26.5 73a3.23 3.23 0 0 0 2.28-.939C29.77 71.077 53 47.704 53 27.757 53 18.6 50.07 11.18 44.527 6.3" id="c"/></defs><g fill="none" fill-rule="evenodd"><g opacity=".54" transform="translate(-9 71)"><ellipse fill="url(#a)" opacity=".2" cx="38" cy="2" rx="38" ry="2"/><ellipse fill="url(#b)" opacity=".56" cx="38" cy="2" rx="19" ry="1"/></g><g transform="translate(1)"><mask id="d" fill="#fff"><use xlink:href="#c"/></mask><use fill="#F05145" xlink:href="#c"/><g opacity=".5" mask="url(#d)"><path d="M44.527 6.299C39.915 2.238 33.512 0 26.5 0 19.488 0 13.085 2.238 8.473 6.299 2.929 11.18 0 18.599 0 27.757c0 19.947 23.23 43.32 24.22 44.304A3.23 3.23 0 0 0 26.5 73a3.23 3.23 0 0 0 2.28-.939C29.77 71.077 53 47.704 53 27.757 53 18.6 50.07 11.18 44.527 6.3" fill="#F05145"/><path d="M10.18 57.047l-1.518-4.39.367-.38a.929.929 0 0 0-1.019-1.505l-1.394-4.027.333-.345a.929.929 0 0 0-.977-1.52l-2.163-6.254c2.69-2.633 4.692-4.6 5.061-4.983.809-.838 1.567-2.258 1.931-3.616.49-1.833.226-3.361-.748-4.301-.973-.94-2.51-1.152-4.324-.598-1.346.411-2.738 1.218-3.547 2.056-.372.384-2.28 2.468-4.832 5.263l-6.235-1.915a.929.929 0 0 0-1.555-.925l-.333.345-4.072-1.251a.929.929 0 0 0-1.541-.967l-.368.38-4.438-1.363a.932.932 0 0 0-.944.244l-2.587 2.679a.929.929 0 0 0 .172 1.432l14.682 9.261-4.585 5.04-5.909-.937a.932.932 0 0 0-.816.273l-2.586 2.678a.93.93 0 0 0 .271 1.488l4.098 1.931-.406.448a.93.93 0 0 0 .042 1.295l1.337 1.292a.93.93 0 1 0 1.338 1.291l1.338 1.292a.932.932 0 0 0 1.296-.003c.06-.06.216-.212.453-.442l2.113 4.107a.934.934 0 0 0 .693.494.933.933 0 0 0 .803-.276l2.586-2.678a.931.931 0 0 0 .246-.824l-1.162-5.971 4.847-4.732 9.816 14.421a.925.925 0 0 0 .69.403.927.927 0 0 0 .748-.28l2.587-2.68a.932.932 0 0 0 .21-.95zm-19.655-.329l-1.348 1.396-1.743-3.384 2.272-2.219.819 4.207zM-22.59 30.142l1.394-1.444 17.156 5.27c-1.43 1.568-2.99 3.281-4.556 5.001l-13.994-8.827zm1.063 17.637l1.348-1.396 4.226.67-2.134 2.347-3.44-1.621zm5.734 6.048l3.234-3.349a.93.93 0 1 0-1.337-1.291l-3.234 3.349-.69-.665c.174-.191.381-.42.62-.68l.027-.029 3.763-4.13a1 1 0 0 0 .066-.083c6.21-6.826 15.998-17.578 16.863-18.473 1.092-1.131 4.14-2.47 5.24-1.41 1.098 1.06-.135 4.154-1.227 5.285-1.145 1.185-18.987 18.585-22.637 22.141l-.688-.665zM6.839 58.56l-9.358-13.747c1.67-1.632 3.336-3.259 4.857-4.747l5.896 17.05-1.395 1.444zm.879-26.487a.933.933 0 0 1-1.501.302.93.93 0 0 1-.223-.998c.016-.064.078-.436-.468-.964-.547-.528-.916-.452-.98-.434a.93.93 0 0 1-.755-1.698c.55-.26 1.807-.386 3.028.793.762.736.982 1.464 1.031 1.946.058.558-.086.946-.132 1.053z" fill="#FFF" fill-rule="nonzero"/></g><g mask="url(#d)"><path d="M44.527 6.299C39.915 2.238 33.512 0 26.5 0 19.488 0 13.085 2.238 8.473 6.299 2.929 11.18 0 18.599 0 27.757c0 19.947 23.23 43.32 24.22 44.304A3.23 3.23 0 0 0 26.5 73a3.23 3.23 0 0 0 2.28-.939C29.77 71.077 53 47.704 53 27.757 53 18.6 50.07 11.18 44.527 6.3" fill="#F05145"/><path d="M18.581 53.322l.156-4.641.48-.224a.929.929 0 0 0-.412-1.77l.142-4.26.435-.202a.929.929 0 0 0-.368-1.77l.222-6.613c3.454-1.494 6.029-2.614 6.51-2.839 1.056-.492 2.272-1.546 3.1-2.683 1.114-1.536 1.414-3.057.842-4.284-.572-1.226-1.93-1.974-3.823-2.107-1.403-.099-2.993.156-4.048.648-.484.226-3.014 1.487-6.397 3.182l-5.135-4.022a.929.929 0 0 0-1.12-1.421l-.435.203-3.353-2.628a.929.929 0 0 0-1.092-1.455l-.48.224L.15 13.796a.932.932 0 0 0-.968-.11l-3.375 1.573a.929.929 0 0 0-.353 1.4L5.843 30.566l-6.087 3.061-5.18-2.992a.932.932 0 0 0-.86-.037l-3.375 1.573a.93.93 0 0 0-.28 1.487l3.134 3.271-.54.272a.93.93 0 0 0-.425 1.224l.786 1.686a.93.93 0 1 0 .786 1.685l.786 1.686a.932.932 0 0 0 1.21.461l.582-.25.501 4.59a.934.934 0 0 0 .47.71c.26.146.577.158.849.031l3.374-1.573a.931.931 0 0 0 .525-.682l1.055-5.99 6.22-2.68 3.996 16.98a.925.925 0 0 0 .5.624.927.927 0 0 0 .8.006l3.374-1.574a.932.932 0 0 0 .537-.813zm-18.23-7.35l-1.76.82-.414-3.783 2.916-1.258-.743 4.22zM-2.37 16.46l1.82-.848 14.127 11.069c-1.896.95-3.967 1.99-6.046 3.035l-9.9-13.256zm-5.327 16.847l1.758-.82 3.705 2.14-2.833 1.426-2.63-2.746zm3.185 7.701l4.22-1.967a.93.93 0 1 0-.787-1.685l-4.219 1.967-.405-.867c.23-.117.506-.256.822-.414l.036-.016 4.993-2.508a.902.902 0 0 0 .091-.053c8.243-4.148 21.235-10.677 22.363-11.204 1.425-.664 4.752-.822 5.397.562.645 1.384-1.614 3.83-3.04 4.495-1.492.696-24.385 10.546-29.067 12.558l-.404-.868zM14.92 53.54l-3.81-16.19c2.145-.925 4.282-1.846 6.235-2.69l-.606 18.03-1.82.848zm10.312-24.414a.933.933 0 0 1-1.51-.256.93.93 0 0 1 .15-1.011c.038-.055.23-.38-.091-1.068-.321-.689-.693-.75-.759-.756a.93.93 0 0 1-.097-1.856c.608-.046 1.825.287 2.543 1.826.447.96.392 1.718.265 2.186-.146.541-.42.852-.5.935z" fill="#FFF" fill-rule="nonzero"/></g></g></g></svg>