<svg xmlns="http://www.w3.org/2000/svg" width="1024" height="1024" viewBox="0 0 1024 1024"><title/><path d="M972.533 246.089c51.473-51.656 48.01-140.103-8.229-196.686-26.294-26.418-61.228-40.911-98.366-40.911s-72.055 14.476-98.32 40.83l-166.284 167.01-435.319-50.1c-2.392-.298-4.784-.394-7.176-.394a62.974 62.974 0 0 0-44.628 18.55l-62.631 62.94c-14.271 14.304-20.754 34.663-17.499 54.615a62.9 62.9 0 0 0 34.036 46.135l268.757 134.107-70.749 71.105-166.244-9.676a71.706 71.706 0 0 0-3.651-.08 62.85 62.85 0 0 0-44.628 18.55l-31.33 31.469C6.613 607.32.004 626.579 2.413 645.793c2.392 19.196 13.533 36.253 30.196 46.198l191.806 114.55 98.744 176.797c9.614 17.245 26.798 28.998 46.373 31.659 2.879.394 5.728.613 8.607.613a63.052 63.052 0 0 0 44.628-18.55l31.33-31.469a62.924 62.924 0 0 0 18.316-45.551l-2.912-160.73 59.231-58.831 138.903 251.129c9.567 17.355 26.751 29.141 46.373 31.894 2.895.394 5.838.613 8.733.613a63.052 63.052 0 0 0 44.628-18.55L830 902.625c12.904-12.982 19.513-30.95 18.128-49.218l-34.036-444.312 158.495-162.933zM404.364 737.06l3.457 190.528-31.798 31.971L267.391 765.02 57.905 639.848l31.798-31.971 197.567 11.467 154.654-155.383L89.7 288.166l63.624-63.942 472.941 54.443 190.654-191.59c15.097-15.115 34.856-22.662 54.616-22.662 19.713 0 39.473 7.548 54.553 22.662 30.1 30.338 38.03 79.928 7.883 110.202L404.382 737.008zm318.747 222.486l-161.75-306.334 191.582-197.155 32.212 438.444-62.043 65.063z"/></svg>