<svg xmlns="http://www.w3.org/2000/svg" width="1024" height="1024" viewBox="0 0 1024 1024"><title/><path d="M773.305 828.276c-2.099 0-4.159-.313-6.259-.977l-105.647-34.746c-63.301-25.991-83.939-117.801-83.939-140.157a19.465 19.465 0 0 1 7.17-15.087c22.143-18.018 45.634-49.246 45.634-71.798 0-26.304 10.893-41.195 21.549-48.504 4.952-13.484 12.597-37.052 13.508-52.686-.357-.821-.871-1.681-1.268-2.032-10.893 0-16.202-7.543-16.202-18.331V339.72c0-49.911-15.924-59.916-22.738-64.216-4.318-2.697-12.32-7.7-13.508-18.292-.238-2.189.04-4.651.753-7.152-2.694-13.367-23.609-47.136-103.151-47.136-84.652 0-138.644 81.022-138.644 136.796v104.238c0 10.045-7.645 18.331-17.548 19.425.673 15.556 8.517 39.905 13.587 53.624 10.656 7.309 21.549 22.2 21.549 48.504 0 22.552 23.49 53.78 45.634 71.798a19.468 19.468 0 0 1 7.17 15.087c0 22.356-20.638 114.166-82.592 139.649l-106.994 35.254c-10.339 3.439-21.549-2.15-25.075-12.39-3.446-10.24 2.179-21.301 12.557-24.74l105.647-34.707c35.216-14.539 52.011-71.994 55.933-95.014-26.976-24.74-51.893-61.597-51.893-94.936 0-11.295-3.248-15.673-4.476-16.415-6.18-1.524-9.309-5.198-11.686-11.061-1.981-4.807-19.014-47.722-19.014-76.723 0-1.602.198-3.205.555-4.729 2.535-9.81 8.319-19.699 17.033-25.835v-91.028c0-73.44 67.817-175.88 178.257-175.88 108.063 0 138.407 54.484 142.566 82.429 18.341 13.64 35.691 37.208 35.691 93.451v91.028c8.715 6.136 14.498 16.025 17.033 25.835.357 1.524.555 3.127.555 4.729 0 29.001-17.033 71.915-19.014 76.723-2.377 5.863-7.408 10.201-13.587 11.725.673.078-2.575 4.456-2.575 15.751 0 33.339-24.916 70.196-51.893 94.936 3.961 23.021 20.876 80.553 57.28 95.483l104.3 34.238c10.379 3.439 16.004 14.5 12.557 24.74-2.812 8.169-10.537 13.367-18.816 13.367z"/><path d="M61.44 512c0 248.422 202.138 450.56 450.56 450.56S962.56 760.422 962.56 512 760.422 61.44 512 61.44 61.44 263.578 61.44 512zM0 512C0 229.675 229.675 0 512 0s512 229.675 512 512-229.675 512-512 512S0 794.325 0 512z"/></svg>