<svg width="22" height="30" viewBox="0 0 22 30" xmlns="http://www.w3.org/2000/svg"><title>Icons/icon-switch</title><path d="M15.592 11.957a1.316 1.316 0 0 0-1.297 1.297l-.16 11.524-2.552-2.551c-.497-.496-1.346-.49-1.858.02l-.007.007c-.511.512-.517 1.342-.02 1.838l4.723 4.729c.238.238.554.36.896.354.342-.005.661-.156.907-.401l4.866-4.867c.512-.511.525-1.328.028-1.824-.496-.497-1.313-.484-1.824.028l-2.63 2.63.187-11.525a1.224 1.224 0 0 0-1.259-1.259M6.411.567c.342-.006.696.149.935.387l4.706 4.698c.496.496.454 1.266-.057 1.778l.018-.018c-.512.511-1.216.564-1.712.067L7.749 4.928l-.213 11.374c-.005.356-.195.713-.432.95a1.34 1.34 0 0 1-.927.383c-.713.01-1.3-.576-1.29-1.29L5.025 4.97 2.395 7.6c-.511.51-1.328.524-1.824.027C.073 7.13.086 6.313.598 5.802L5.465.935c.245-.246.604-.363.946-.369" fill="#2E2929" fill-rule="evenodd"/></svg>