<svg width="176" height="36" viewBox="0 0 36 36" xmlns="http://www.w3.org/2000/svg"><path d="M11 23.996a1 1 0 0 0-1 .996 1 1 0 0 0 2 0 .999.999 0 0 0-1-.996z"/><path d="M46.176 15.639c-1.733-1.584-4.736-1.632-10.614-1.634-.465-.7-1.446-1.994-3.07-3.276C30.35 9.037 26.618 7.02 21 7.02c-5.617 0-9.354 2.016-11.5 3.706-1.63 1.282-2.614 2.575-3.08 3.276H5.243c-.078-.02-.41-.02-.487 0H3a1 1 0 0 0-.706.292l-2 1.994a.997.997 0 0 0-.294.706v7.002c0 .278.117.543.321.733.249.228 2.489 2.238 4.66 2.238H6.41a5.006 5.006 0 0 0 9.183 0l16.816-.002a5.005 5.005 0 0 0 9.183 0h5.41c.55 0 .999-.445.999-.997 0-5.767 0-8.663-1.824-10.33zM31.172 12.23A13.287 13.287 0 0 1 33.045 14H20V9.04c.33-.016.662-.024 1-.024 4.008 0 7.43 1.082 10.172 3.216zm-20.355 0C12.853 10.65 15.26 9.647 18 9.232v4.769H8.937a13.358 13.358 0 0 1 1.88-1.772zm-7.402 3.765H4v.997H2.414l1-.997zM11 27.984c-1.654 0-3-1.341-3-2.992a3 3 0 0 1 6 0 2.999 2.999 0 0 1-3 2.992zm25.999 0a3 3 0 0 1-3-2.992 3 3 0 1 1 6 0 2.998 2.998 0 0 1-3 2.992zm5-3.012c-.011-2.74-2.25-4.964-5-4.964-2.748 0-4.987 2.223-4.998 4.964H16c-.013-2.74-2.25-4.964-5-4.964-2.749 0-4.987 2.223-4.999 4.964h-1.02c-.985 0-2.296-.888-2.98-1.435v-4.55h3c.552 0 1-.446 1-.996v-1.995h28.917a.785.785 0 0 0 .084.004c5.351 0 8.386 0 9.684.993h-1.699a.998.998 0 1 0 0 1.995h2.71c.27 1.35.299 3.31.302 5.984h-4z"/><path d="M36.999 23.996a.999.999 0 1 0 0 1.996 1 1 0 0 0 1.002-1 1 1 0 0 0-1.002-.996zM23 17.99h-2a.998.998 0 1 0 0 1.995h2a.998.998 0 0 0 0-1.995z"/></svg>