<svg width="24" height="24" viewBox="0 0 24 24" xmlns="http://www.w3.org/2000/svg"><title>Icons/Flags/PR</title><g fill="none" fill-rule="evenodd"><circle fill="#E94B35" fill-rule="nonzero" cx="12" cy="12" r="12"/><path d="M8 .683C3.34 2.33 0 6.775 0 12c0 5.225 3.34 9.67 8 11.317V.683z" fill="#1AAF5D" fill-rule="nonzero"/><path d="M11.615 14.867c-1.396-.043-7.797-4.038-7.84-4.674l.353-.59c.635.923 7.178 4.809 7.821 4.67l-.334.593" fill="#FF0" fill-rule="nonzero"/><path d="M4.054 9.523c-.126.337 1.67 1.447 3.83 2.761s4.023 2.126 4.161 2.01c.008-.015.068-.118.062-.117-.025.04-.088.051-.187.023-.583-.168-2.105-.867-3.99-2.01-1.886-1.143-3.526-2.197-3.78-2.645a.27.27 0 0 1-.028-.131h-.007l-.054.095-.007.015zm7.594 5.362c-.024.043-.068.044-.152.035-.522-.058-2.106-.828-3.98-1.95-2.182-1.307-3.984-2.496-3.788-2.807l.053-.094.01.003c-.175.527 3.556 2.66 3.776 2.796 2.158 1.338 3.978 2.119 4.14 1.916l-.06.1z" fill="#FF0" fill-rule="nonzero"/><path d="M4.054 9.523c-.126.337 1.67 1.447 3.83 2.761s4.023 2.126 4.161 2.01c.008-.015.068-.118.062-.117-.025.039-.088.051-.187.023-.583-.168-2.105-.867-3.99-2.01-1.886-1.143-3.526-2.197-3.78-2.645a.271.271 0 0 1-.028-.131h-.007l-.054.095-.007.014zm7.594 5.362c-.024.043-.068.044-.152.035-.522-.058-2.106-.828-3.98-1.95-2.182-1.306-3.984-2.496-3.788-2.807l.053-.094.01.004c-.175.526 3.556 2.66 3.775 2.796 2.16 1.337 3.98 2.118 4.14 1.915l-.058.101z" stroke="#000" stroke-width=".571"/><path d="M8.008 10.578c1.397-.01 3.121-.19 4.113-.586l-.214-.347c-.586.324-2.32.538-3.911.57-1.882-.018-3.21-.193-3.876-.64l-.202.37c1.224.518 2.477.628 4.09.633" fill="#FF0" fill-rule="nonzero"/><path d="M12.179 10c-.034.054-.681.277-1.635.442-.646.099-1.49.183-2.541.184-1 0-1.816-.07-2.434-.154-1.001-.157-1.517-.375-1.708-.452l.047-.096c.55.219 1.069.35 1.676.444.615.083 1.421.156 2.416.155a16.958 16.958 0 0 0 2.523-.188c.978-.157 1.512-.36 1.587-.454l.069.119zm-.188-.352c-.106.085-.634.272-1.563.42a16.8 16.8 0 0 1-2.414.17 16.26 16.26 0 0 1-2.333-.15c-.943-.124-1.445-.346-1.626-.41l.055-.094c.14.071.625.268 1.581.403.588.083 1.37.146 2.323.145a16.669 16.669 0 0 0 2.397-.17c.933-.13 1.436-.368 1.512-.428l.068.114z" fill="#FF0" fill-rule="nonzero"/><path d="M12.179 10c-.034.054-.681.278-1.635.442-.646.099-1.489.183-2.541.184-1 0-1.816-.07-2.434-.154-1-.157-1.517-.375-1.708-.452l.047-.096c.55.219 1.069.35 1.677.444.614.083 1.42.156 2.415.155a16.968 16.968 0 0 0 2.523-.188c.978-.157 1.512-.36 1.587-.454l.069.119zm-.188-.352c-.106.085-.634.272-1.562.42-.62.09-1.408.169-2.415.17-.957 0-1.739-.064-2.333-.15-.943-.124-1.445-.346-1.626-.41l.055-.094c.14.071.625.268 1.581.403a16.7 16.7 0 0 0 2.323.145 16.602 16.602 0 0 0 2.397-.17c.934-.13 1.436-.368 1.512-.428l.068.114z" stroke="#000" stroke-width=".571"/><path d="M3.42 12.262c.86.462 2.768.695 4.574.71 1.645.003 3.787-.254 4.588-.678l-.022-.463c-.25.392-2.546.768-4.584.752-2.037-.015-3.929-.33-4.56-.737l.004.415" fill="#FF0" fill-rule="nonzero"/><path d="M12.626 12.195v.11c-.12.144-.875.362-1.822.515-.72.11-1.66.194-2.83.194-1.113 0-2-.08-2.687-.185-1.087-.158-1.783-.435-1.922-.518v-.129c.42.279 1.555.483 1.937.545a17.64 17.64 0 0 0 2.671.184c1.165 0 2.1-.083 2.816-.193.679-.098 1.647-.353 1.837-.523zm0-.392v.11c-.12.144-.875.361-1.822.515-.72.11-1.66.194-2.83.194-1.112 0-2-.08-2.687-.185-1.087-.159-1.782-.436-1.922-.519v-.128c.42.278 1.556.482 1.937.545.684.105 1.565.183 2.672.183 1.165 0 2.099-.082 2.815-.192.68-.098 1.647-.353 1.837-.523z" fill="#FF0" fill-rule="nonzero"/><path d="M12.626 12.195v.11c-.12.144-.875.362-1.822.515-.72.11-1.66.194-2.83.194-1.113 0-2-.08-2.687-.185-1.088-.158-1.783-.436-1.923-.518l.001-.129c.42.279 1.555.483 1.937.545a17.64 17.64 0 0 0 2.671.184c1.165 0 2.1-.083 2.816-.193.679-.098 1.646-.353 1.837-.523zm0-.392v.11c-.12.144-.875.361-1.822.515-.72.11-1.66.193-2.83.193-1.112 0-2-.079-2.687-.184-1.087-.159-1.782-.436-1.922-.519v-.128c.42.278 1.556.482 1.937.545.684.105 1.565.183 2.672.183 1.165 0 2.099-.082 2.815-.192.68-.098 1.647-.354 1.837-.523z" stroke="#000" stroke-width=".571"/><path d="M7.99 14.787c-1.976-.012-3.67-.539-4.027-.626l.26.408c.632.266 2.284.662 3.786.618 1.502-.044 2.815-.16 3.74-.61l.267-.423c-.63.297-2.776.63-4.026.633" fill="#FF0" fill-rule="nonzero"/><path d="M11.849 14.482c-.04.06-.08.12-.12.177-.436.154-1.124.315-1.414.362-.592.123-1.51.213-2.323.213-1.75-.025-3.183-.368-3.858-.66l-.054-.094.009-.014.092.036c1.2.428 2.546.6 3.821.63.81.003 1.622-.093 2.278-.21 1.006-.201 1.412-.353 1.537-.422l.032-.018zm.232-.382a.259.259 0 0 1 .003.003l-.091.151c-.233.083-.864.268-1.786.397-.608.083-.985.163-2.194.186-2.265-.057-3.731-.5-4.08-.61l-.051-.098c1.313.342 2.653.581 4.131.606 1.106-.024 1.576-.105 2.179-.187 1.075-.167 1.617-.344 1.78-.396a.127.127 0 0 0-.008-.009l.117-.043z" fill="#FF0" fill-rule="nonzero"/><path d="M11.849 14.482c-.04.06-.08.12-.12.177-.436.154-1.124.315-1.414.362-.592.123-1.51.213-2.323.213-1.75-.025-3.183-.368-3.858-.66l-.054-.094.009-.014.092.036c1.199.429 2.546.6 3.821.63.81.003 1.622-.092 2.278-.21 1.006-.201 1.412-.353 1.537-.422l.032-.018zm.232-.382l.003.003-.091.151c-.233.083-.864.268-1.786.397-.608.083-.985.163-2.194.186-2.265-.057-3.731-.5-4.08-.61l-.05-.098c1.312.342 2.652.581 4.13.606 1.106-.024 1.576-.105 2.179-.187 1.075-.167 1.617-.344 1.78-.396a.123.123 0 0 0-.008-.009l.117-.043z" stroke="#000" stroke-width=".571"/><path d="M12.104 11.897c.007 1.3-.659 2.466-1.194 2.98a4.3 4.3 0 0 1-2.938 1.219c-1.31.024-2.546-.83-2.878-1.206-.648-.734-1.176-1.666-1.193-2.922.08-1.419.638-2.407 1.445-3.085.807-.678 1.883-1.008 2.778-.984 1.033.027 2.24.534 3.073 1.54.547.659.783 1.374.907 2.458 0 0-.124-1.084 0 0zm-4.12-4.452c2.517 0 4.587 2.049 4.587 4.56 0 2.512-2.07 4.561-4.587 4.561-2.518 0-4.571-2.048-4.571-4.56 0-2.512 2.053-4.56 4.57-4.56z" fill="#FF0" fill-rule="nonzero"/><path d="M12.57 12.005a4.584 4.584 0 0 1-4.574 4.575 4.584 4.584 0 0 1-4.575-4.575 4.584 4.584 0 0 1 4.575-4.576 4.584 4.584 0 0 1 4.575 4.576zm-.1 0c0 2.46-2.02 4.474-4.474 4.474-2.453 0-4.474-2.013-4.474-4.474 0-2.461 2.02-4.475 4.474-4.475 2.453 0 4.474 2.014 4.474 4.475z" stroke="#000" stroke-width=".571"/><path d="M12.19 12A4.208 4.208 0 0 1 8 16.192a4.207 4.207 0 0 1-4.19-4.191A4.206 4.206 0 0 1 8 7.81c2.297 0 4.19 1.886 4.19 4.19zm-.1 0c0 2.25-1.848 4.09-4.09 4.09A4.107 4.107 0 0 1 3.91 12 4.107 4.107 0 0 1 8 7.91c2.242 0 4.09 1.841 4.09 4.09z" stroke="#000" stroke-width=".571"/><path d="M3.404 11.81c.574-.529 2.69-.871 4.569-.862 1.878.009 4.102.395 4.586.85l.005.394c-.406-.38-2.134-.835-4.587-.84-2.454-.006-4.236.461-4.573.85v-.392" fill="#FF0" fill-rule="nonzero"/><path d="M7.998 11.296c1.08-.002 2.128.103 2.96.265.858.171 1.462.386 1.668.627v.119c-.25-.3-1.062-.52-1.688-.645a15.757 15.757 0 0 0-2.94-.263c-1.134.003-2.19.11-3.003.269-.652.129-1.522.386-1.631.64v-.124c.06-.176.707-.438 1.616-.62.82-.16 1.877-.266 3.018-.268zm0-.392c1.08-.002 2.129.102 2.96.264.858.172 1.462.386 1.668.627v.12c-.249-.3-1.061-.52-1.687-.646a15.757 15.757 0 0 0-2.94-.262c-1.135.002-2.185.11-2.998.268-.63.12-1.536.387-1.637.64v-.124c.06-.173.721-.445 1.617-.62.819-.16 1.877-.265 3.017-.267z" fill="#FF0" fill-rule="nonzero"/><path d="M10.958 11.56c.858.172 1.462.387 1.668.628v.119c-.25-.3-1.062-.52-1.688-.645a15.77 15.77 0 0 0-2.94-.263c-1.134.003-2.19.11-3.003.269-.652.129-1.522.386-1.631.64v-.124c.06-.176.708-.438 1.616-.62.82-.16 1.877-.266 3.018-.268a15.86 15.86 0 0 1 2.96.265zm0-.392c.858.172 1.462.386 1.668.627v.12c-.249-.3-1.061-.52-1.687-.646a15.757 15.757 0 0 0-2.94-.262c-1.135.002-2.185.11-2.998.268-.63.12-1.536.387-1.637.64v-.124c.06-.173.721-.445 1.617-.62.82-.16 1.877-.265 3.017-.267a15.87 15.87 0 0 1 2.96.264z" stroke="#000" stroke-width=".571"/><path d="M11.843 9.489l.248.428c-.59-.318-2.193-.649-4.113-.6-1.564.01-3.235.173-4.074.62l.296-.495c.688-.357 2.311-.538 3.776-.54 1.703-.008 3.188.239 3.867.587z" fill="#FF0" fill-rule="nonzero"/><path d="M7.999 9.256c.97-.002 1.91.053 2.655.187.695.13 1.358.324 1.453.428l.073.13c-.23-.15-.804-.318-1.54-.458-.74-.139-1.678-.185-2.643-.182-1.096-.004-1.948.054-2.679.181-.772.145-1.309.351-1.441.45l.072-.138c.257-.13.665-.289 1.35-.412.756-.138 1.617-.18 2.7-.186zm0-.392c.929-.002 1.846.05 2.561.178.564.11 1.122.282 1.327.434l.107.17c-.183-.202-.87-.395-1.477-.502-.71-.123-1.59-.171-2.519-.179-.975.003-1.876.062-2.576.19-.667.127-1.098.277-1.28.394l.095-.142c.251-.132.657-.254 1.169-.353.704-.129 1.611-.187 2.592-.19z" fill="#FF0" fill-rule="nonzero"/><path d="M10.654 9.443c.695.13 1.358.324 1.453.428l.073.13c-.23-.15-.804-.318-1.54-.458-.74-.139-1.677-.185-2.643-.182-1.096-.004-1.948.054-2.679.181-.772.145-1.309.351-1.441.45l.072-.138c.257-.13.665-.289 1.35-.412.756-.138 1.617-.18 2.7-.186.97-.002 1.909.053 2.655.187zm-.094-.4c.564.11 1.122.28 1.327.433l.107.17c-.183-.202-.87-.395-1.477-.502-.71-.123-1.59-.171-2.519-.179-.975.003-1.876.062-2.576.19-.667.127-1.098.277-1.28.394l.095-.142c.251-.132.657-.254 1.169-.353.704-.129 1.611-.187 2.592-.19.93-.002 1.847.05 2.562.178z" stroke="#000" stroke-width=".571"/><path d="M10.271 13.906c-.842-.157-1.685-.18-2.274-.173-2.837.034-3.754.583-3.866.75l-.212-.346c.723-.524 2.268-.818 4.093-.788.948.016 1.766.079 2.455.212l-.196.345" fill="#FF0" fill-rule="nonzero"/><path d="M7.98 13.685c.79.011 1.565.044 2.312.183l-.054.096c-.694-.128-1.435-.177-2.255-.173-1.047-.008-2.106.09-3.028.354-.291.08-.773.268-.822.423l-.054-.09c.016-.09.307-.28.851-.433 1.056-.303 2.044-.354 3.05-.36zm.036-.398c.818.016 1.663.054 2.483.216l-.056.1c-.741-.147-1.45-.196-2.422-.211-1.05.001-2.164.076-3.178.37-.327.096-.891.302-.91.465l-.054-.095c.012-.148.501-.342.94-.47 1.022-.296 2.139-.373 3.197-.375z" fill="#FF0" fill-rule="nonzero"/><path d="M7.98 13.685c.79.011 1.565.044 2.312.183l-.054.096c-.694-.128-1.435-.177-2.255-.173-1.047-.008-2.106.09-3.028.354-.291.081-.773.268-.822.423l-.054-.09c.016-.09.307-.28.851-.433 1.056-.303 2.044-.354 3.05-.36zm.036-.398c.818.016 1.663.054 2.483.216l-.056.1c-.741-.148-1.45-.197-2.422-.212-1.05.002-2.164.077-3.178.372-.327.095-.891.301-.91.464l-.054-.095c.012-.148.501-.342.94-.47 1.022-.296 2.139-.373 3.197-.375 0 0-1.058.002 0 0z" stroke="#000" stroke-width=".571"/><path d="M4.16 9.437c1.406-.019 7.897 3.966 7.916 4.7l-.402.616c-.182-.852-6.768-4.73-7.855-4.656l.341-.66" fill="#FF0" fill-rule="nonzero"/><path d="M3.78 10.073c.26-.177 2.177.677 4.183 1.887 2.001 1.213 3.913 2.584 3.74 2.84l-.057.09-.026.02c.006-.004.035-.039-.002-.134-.086-.28-1.442-1.363-3.692-2.721-2.193-1.308-4.022-2.097-4.204-1.871l.057-.11zm8.336 4.109c.165-.326-1.613-1.665-3.818-2.97-2.255-1.278-3.88-2.03-4.177-1.806l-.066.12c-.001.007.002-.008.016-.019.054-.047.143-.044.184-.045.511.008 1.971.68 4.02 1.854.897.523 3.792 2.38 3.78 2.902.002.044.005.054-.012.076l.073-.112z" fill="#FF0" fill-rule="nonzero"/><path d="M7.963 11.96c2.001 1.213 3.913 2.583 3.74 2.84l-.057.09-.026.02c.006-.004.035-.04-.002-.135-.086-.28-1.442-1.362-3.692-2.72-2.193-1.309-4.022-2.097-4.204-1.872l.057-.11c.261-.177 2.178.677 4.184 1.887zm.335-.748c-2.255-1.278-3.88-2.03-4.177-1.806l-.066.12c-.001.006.002-.008.016-.02.054-.046.143-.043.184-.044.511.008 1.971.68 4.02 1.854.898.523 3.792 2.38 3.78 2.901.002.045.005.054-.012.077l.073-.112c.165-.326-1.613-1.666-3.818-2.97z" stroke="#000" stroke-width=".571"/><path d="M5.255 12.509c0 .751.308 1.431.807 1.928.5.498 1.179.813 1.932.813.757 0 1.444-.308 1.941-.804.498-.496.806-1.18.806-1.935V8.852l-5.486-.006v3.663" fill="#FFF" fill-rule="nonzero"/><path d="M5.255 12.509c0 .752.308 1.431.807 1.928a2.73 2.73 0 0 0 1.932.813c.757 0 1.444-.308 1.941-.804.498-.496.806-1.18.806-1.935V8.852l-5.486-.006v3.663z" stroke="#000" stroke-width=".571"/><path d="M5.358 12.514c0 .72.298 1.375.775 1.85a2.627 2.627 0 0 0 4.488-1.846v-3.55h-5.26l-.003 3.546zm4.206-.225l-.002.24a1.534 1.534 0 0 1-.461 1.106 1.555 1.555 0 0 1-2.212-.007 1.569 1.569 0 0 1-.464-1.107v-2.496l3.139.005v2.26z" fill="#E94B35" fill-rule="nonzero"/><path d="M7.759 13.566c.063.067.15.11.245.11a.334.334 0 0 0 .245-.11.385.385 0 0 0 .101-.263v-.497l-.692-.001-.002.497c0 .103.04.196.103.264zM7.66 10.91c0 .102.039.195.102.262.063.068.15.11.245.11a.334.334 0 0 0 .245-.11.385.385 0 0 0 .101-.262v-.498h-.692l-.002.497m.005 1.201v.001c0 .102.04.195.102.263.063.068.15.11.245.11a.334.334 0 0 0 .245-.11.385.385 0 0 0 .102-.262v-.498h-.693v.497m1.011-.001c0 .103.04.196.102.264.063.067.15.11.245.11a.334.334 0 0 0 .245-.11.385.385 0 0 0 .102-.263v-.497l-.693-.001-.001.497m-2.033 0c0 .103.04.196.102.264.063.067.15.11.245.11a.334.334 0 0 0 .245-.11.385.385 0 0 0 .102-.263v-.497l-.693-.001-.001.497" fill-rule="nonzero" fill="#039"/></g></svg>