<svg width="24" height="24" viewBox="0 0 24 24" xmlns="http://www.w3.org/2000/svg"><title>Icons/Flags/UK</title><g fill="none"><circle fill="#227FBB" cx="12" cy="12" r="12"/><path d="M4.962 2.28L12 9.316l7.038-7.038a12.07 12.07 0 0 1 2.683 2.683L14.683 12l7.038 7.038a12.07 12.07 0 0 1-2.683 2.683L12 14.683l-7.038 7.038a12.07 12.07 0 0 1-2.683-2.683L9.317 12 2.279 4.962A12.07 12.07 0 0 1 4.962 2.28z" fill="#FFF"/><path d="M21.485 19.352l-6.162-6.285H13.24l7.273 7.39c.346-.348.67-.717.972-1.105zM4.63 21.472L12.8 13.2h-2.133l-7.174 7.263c.357.36.737.696 1.138 1.008zM20.499 3.528l-6.832 6.888h-1.934l7.742-7.805c.359.286.7.592 1.024.917zM2.526 4.634L7.872 10H9.97L3.51 3.52c-.35.35-.679.722-.984 1.114z" fill="#E94B35"/><path d="M9.333.297v9.036H.297A12.04 12.04 0 0 0 0 12c0 .917.103 1.809.297 2.667h9.036v9.036a12.078 12.078 0 0 0 5.334 0v-9.036h9.036a12.078 12.078 0 0 0 0-5.334h-9.036V.297A12.04 12.04 0 0 0 12 0c-.917 0-1.809.103-2.667.297z" fill="#FFF"/><path d="M10 .166V10H.166a12.081 12.081 0 0 0 0 4H10v9.834a12.081 12.081 0 0 0 4 0V14h9.834a12.081 12.081 0 0 0 0-4H14V.166a12.081 12.081 0 0 0-4 0z" fill="#E94B35"/></g></svg>