<svg width="24" height="24" viewBox="0 0 24 24" xmlns="http://www.w3.org/2000/svg"><title>Icons/Flags/ES</title><g fill="none"><path d="M22.395 18A11.945 11.945 0 0 0 24 12c0-2.186-.584-4.235-1.605-6H1.605A11.945 11.945 0 0 0 0 12c0 2.186.584 4.235 1.605 6h20.79z" fill="#F2C500"/><path d="M22.395 18A11.995 11.995 0 0 1 12 24c-4.442 0-8.32-2.413-10.395-6h20.79zm0-12A11.995 11.995 0 0 0 12 0C7.558 0 3.68 2.413 1.605 6h20.79z" fill="#E94B35"/><path d="M5.194 16.809A1.392 1.392 0 0 1 4.4 15.56v-5.294h5.964v5.294c0 .54-.317 1.013-.794 1.248a5.049 5.049 0 0 1-2.182.503 5.102 5.102 0 0 1-2.194-.503z" fill="#FFF"/><path d="M9.217 11.135c.004.04-.013.074-.006.096.006.022.009.04.017.055a.242.242 0 0 1 .013.057l-.044-.033a.693.693 0 0 0-.036-.026l.006.062a.164.164 0 0 0 .03.074c.018.02.052.053.062.08.011.027.01.086.01.086s-.029-.045-.052-.053c-.024-.009-.075-.037-.075-.037s.047.047.047.092-.02.096-.02.096-.02-.04-.048-.067a.634.634 0 0 0-.067-.054s.03.07.03.117c0 .048-.008.148-.008.148s-.024-.039-.047-.058c-.024-.018-.052-.034-.06-.047-.009-.012.027.04.031.07.005.03.02.14.114.281.056.082.142.226.326.179.184-.047.116-.298.077-.415a1.06 1.06 0 0 1-.056-.291c.002-.045.034-.179.03-.204a.503.503 0 0 1 .009-.196c.023-.08.043-.11.056-.144.012-.033.023-.051.027-.08a.766.766 0 0 0 .004-.082s.034.064.043.086c.009.023.009.09.009.09s.006-.067.058-.1c.051-.033.111-.068.126-.086.015-.019.02-.031.02-.031s-.005.115-.037.16c-.021.03-.105.125-.105.125s.043-.016.073-.018c.03-.002.051 0 .051 0s-.036.029-.083.099c-.047.07-.028.075-.063.133-.034.057-.062.06-.105.094-.064.052-.03.26-.02.291.008.03.119.285.121.347.002.062.013.199-.094.287-.07.057-.182.058-.208.074-.026.016-.077.068-.077.174 0 .107.038.124.068.15.03.027.069.013.078.033.008.02.012.033.025.045a.051.051 0 0 1 .018.05c-.005.022-.054.073-.071.11a.894.894 0 0 0-.052.148c0 .014-.004.06.011.082 0 0 .054.063.017.076-.023.008-.046-.015-.058-.013-.032.009-.048.029-.058.027-.02-.004-.02-.014-.023-.045-.002-.03-.001-.043-.01-.043-.013 0-.02.01-.022.027-.002.016-.002.053-.017.053-.015 0-.037-.027-.05-.033-.012-.006-.049-.012-.05-.028-.003-.017.02-.052.044-.058.024-.006.045-.018.03-.03-.015-.013-.03-.013-.045 0-.015.012-.047.002-.045-.017.002-.018.007-.04.004-.051-.002-.01-.027-.03.007-.05.034-.018.049.017.083.01.034-.005.052-.018.064-.038.013-.02.011-.064-.012-.09-.024-.027-.047-.031-.056-.048-.009-.016-.021-.055-.021-.055s.006.072.002.082c-.005.01-.002.053-.002.053l-.043-.047c-.02-.02-.039-.082-.039-.082l-.002.08c0 .023.026.043.017.052-.008.008-.049-.043-.06-.052a.227.227 0 0 1-.06-.063c-.015-.029-.026-.07-.03-.084a.263.263 0 0 1-.004-.095l.028-.068h-.084c-.045 0-.077-.014-.094.017-.017.03-.009.092.013.172.021.08.034.12.028.134a.187.187 0 0 1-.045.053c-.011.006-.041.004-.054-.002a.153.153 0 0 0-.075-.017c-.04 0-.066.002-.08-.001-.016-.004-.052-.023-.07-.019-.017.004-.046.02-.038.043.013.037-.013.046-.03.043-.017-.002-.032-.008-.054-.014-.021-.006-.053 0-.05-.025.005-.024.014-.026.024-.045.011-.018.015-.03.003-.031-.015-.002-.03-.004-.042.006-.011.01-.03.03-.045.023-.015-.008-.026-.026-.026-.065 0-.038-.04-.072-.004-.07.037.002.084.029.092.008.009-.021.004-.03-.016-.047-.02-.016-.046-.025-.019-.046.027-.02.034-.02.044-.032.01-.011.024-.048.043-.039.037.018.002.044.039.085.036.042.06.057.122.05.062-.006.079-.014.079-.032 0-.018-.006-.05-.007-.063a.356.356 0 0 1 .008-.059s-.028.018-.037.035c-.008.018-.025.048-.025.048s-.007-.036-.005-.065c.002-.017.008-.047.007-.053a.631.631 0 0 0-.013-.056s-.01.043-.017.056c-.007.013-.01.064-.01.064s-.04-.035-.028-.093c.008-.045-.007-.104.006-.123.013-.02.045-.098.122-.102.077-.003.137.004.164.002.027-.002.122-.02.122-.02s-.175-.09-.216-.118a.59.59 0 0 1-.122-.13.485.485 0 0 1-.038-.094s-.032.002-.06.018a.303.303 0 0 0-.074.059c-.017.019-.044.062-.044.062s.005-.056.005-.073c0-.018-.003-.052-.003-.052s-.02.077-.06.106c-.04.029-.087.069-.087.069l.005-.053c0-.01.01-.06.01-.06s-.029.044-.072.052c-.044.008-.107.007-.112.034-.005.027.011.064.001.083-.01.02-.031.032-.031.032s-.025-.02-.047-.022c-.022-.002-.042.01-.042.01s-.019-.025-.012-.04c.007-.017.04-.04.032-.05-.008-.01-.035.003-.052.01-.017.009-.052.017-.049-.01.004-.028.012-.044.004-.063-.009-.019-.004-.032.01-.037.013-.004.067.002.072-.01.005-.014-.013-.03-.049-.038-.035-.008-.052-.029-.033-.046.018-.018.023-.023.032-.039.008-.016.011-.045.043-.03.032.014.025.05.059.06a.248.248 0 0 0 .128-.014c.017-.01.07-.05.09-.06.018-.008.095-.066.095-.066s-.046-.032-.062-.048c-.017-.016-.047-.055-.062-.063a.513.513 0 0 0-.114-.038.705.705 0 0 1-.102-.029s.035-.011.047-.02c.012-.01.038-.035.052-.033l.016.002s-.071-.004-.087-.008c-.015-.005-.058-.033-.075-.033-.017 0-.05.007-.05.007s.045-.029.082-.035c.037-.006.065-.005.065-.005s-.057-.016-.07-.035c-.014-.02-.027-.048-.037-.061-.01-.013-.017-.034-.035-.035-.019-.002-.05.022-.069.02-.018 0-.032-.012-.033-.04-.002-.027 0-.017-.007-.032-.006-.014-.033-.048-.008-.056s.079.005.084-.005c.005-.01-.029-.038-.05-.05-.022-.01-.058-.03-.04-.046.02-.016.038-.022.048-.036.01-.015.022-.055.043-.042.022.013.052.075.069.07.017-.004.018-.05.015-.068-.003-.02 0-.053.017-.05.016.003.03.025.057.027.026.002.066-.006.063.013a.152.152 0 0 1-.037.064.097.097 0 0 0-.015.09c.012.027.042.07.069.088.027.017.077.03.109.051.031.021.105.08.13.087.025.006.05.019.05.019s.029-.013.068-.013c.038 0 .127.006.16-.008.034-.015.077-.038.064-.07-.013-.03-.087-.057-.08-.08.006-.025.033-.026.078-.028.045-.001.107.008.119-.056.011-.064.015-.101-.049-.115-.063-.015-.11-.016-.122-.063-.012-.046-.023-.057-.01-.07.014-.013.037-.02.084-.023.047-.003.1-.003.115-.014s.018-.042.037-.055c.018-.012.09-.024.09-.024s.086.043.166.103a.923.923 0 0 1 .136.133s0 .042.005.084z" fill="#9C56B8"/><path d="M7.569 16.536c.127.036.192.126.192.232 0 .137-.14.24-.323.24s-.331-.103-.331-.24c0-.104.06-.22.188-.228 0 0-.004-.011-.015-.03a2.592 2.592 0 0 0-.04-.037s.05-.009.077.001c.028.01.047.027.047.027s.013-.025.032-.044a.18.18 0 0 1 .043-.03s.028.022.037.037c.01.015.015.034.015.034s.026-.02.049-.029c.022-.008.05-.015.05-.015s-.007.027-.013.04a.205.205 0 0 0-.008.042" fill="#F6CB7E"/><path stroke="#262626" stroke-width=".571" fill="#CA4638" d="M4.4 13.614h2.982v-3.347H4.4z"/><path d="M5.894 17.02c-.825 0-1.494-.638-1.494-1.425v-5.328h2.982v3.306h2.985v2.022s0 1.425-1.478 1.425-1.507-1.425-1.507-1.425c0 .787-.663 1.425-1.488 1.425z" fill="#E94B35"/><path d="M5.182 11.37v.876h-.249v.47l1.746-.003v-.47h-.24v-.876h.155v-.433h-.21l-.053.045.002.2-.152-.001-.007-.202-.05-.042H5.96l-.042.045-.003.206h-.167v-.208l-.056-.044h-.165l-.05.034.002.217h-.161l-.003-.21-.057-.039-.191.001v.434h.115zm.151.327v-.242c0-.067.04-.122.11-.122.069 0 .109.055.109.122v.242h-.219zm.738.001v-.242c0-.066.04-.122.109-.122.07 0 .109.056.109.122v.242h-.218zm-.007.813v-.29c0-.055-.025-.22-.261-.22-.224 0-.249.165-.249.22v.29h.51z" fill="#F2C500"/><g fill="#F2C500"><path d="M7.95 15.048c.005.01.008.022.008.033 0 .039-.033.07-.074.07a.072.072 0 0 1-.074-.07.06.06 0 0 1 .008-.032l-.104-.001a.165.165 0 0 0 .117.19v.253l.109.001v-.256a.169.169 0 0 0 .107-.102h.292v-.086h-.39zm1.43 0v.086h-.262a.168.168 0 0 1-.017.033l.304.346-.081.066-.303-.347-.015.006v.572h-.108v-.575c-.004 0-.008-.003-.012-.005l-.316.349-.082-.066.316-.35a.14.14 0 0 1-.013-.03H8.52v-.085h.86zm.175 0v.086h.291a.168.168 0 0 0 .108.102v.256h.108v-.255c.07-.02.12-.083.12-.156a.135.135 0 0 0-.003-.033h-.103c.005.01.008.022.008.033 0 .039-.033.07-.074.07a.072.072 0 0 1-.074-.07.06.06 0 0 1 .008-.032l-.39-.001zm-.441 1.46a1.07 1.07 0 0 0 .24-.07l.054.09a1.161 1.161 0 0 1-.285.081.17.17 0 0 1-.169.13.171.171 0 0 1-.169-.129 1.154 1.154 0 0 1-.3-.082l.054-.09c.081.034.168.057.258.07a.164.164 0 0 1 .1-.088l.001-.444h.107l.001.442a.172.172 0 0 1 .108.09zm-.728-.15l-.053.091a1.099 1.099 0 0 1-.24-.203.18.18 0 0 1-.165-.032.158.158 0 0 1-.019-.23l.01-.01a1.008 1.008 0 0 1-.084-.317h.108a.87.87 0 0 0 .07.27c.03-.003.062 0 .091.011l.271-.3.082.066-.27.3a.155.155 0 0 1-.006.18.95.95 0 0 0 .205.174zm-.402-.314a.077.077 0 0 1 .105-.008c.031.025.035.07.008.099a.077.077 0 0 1-.104.008.068.068 0 0 1-.009-.099zm-.136-.297l-.112-.024-.015-.282.11-.037v.162c0 .063.006.122.017.181zm.092-.35l.111.027s.006.181.003.14c-.002-.047.013.142.013.142l-.112.037a.93.93 0 0 1-.015-.177v-.168zm.366.903c.093.073.202.132.32.17l.024-.108a.904.904 0 0 1-.265-.132l-.08.07zm-.054.093c.095.071.203.128.32.168l-.084.077a1.234 1.234 0 0 1-.26-.133l.024-.112zm.145-.622l.106.045.194-.215-.064-.091-.236.261zm-.082-.066l-.064-.092.194-.215.106.045-.236.262zm1.193.653l.052.091c.09-.056.172-.125.241-.203a.18.18 0 0 0 .164-.032.158.158 0 0 0 .02-.23l-.01-.01a.992.992 0 0 0 .084-.317H9.95a.875.875 0 0 1-.07.27.192.192 0 0 0-.092.011l-.27-.3-.082.066.269.3a.156.156 0 0 0 .006.18.995.995 0 0 1-.204.174zm.401-.314a.076.076 0 0 0-.104-.008.068.068 0 0 0-.008.099c.026.03.073.033.104.008a.068.068 0 0 0 .008-.099zm.137-.297l.111-.024.016-.282-.11-.037v.162a.981.981 0 0 1-.017.181zm-.092-.35l-.111.027-.004.14-.012.142.112.037a.924.924 0 0 0 .015-.177v-.168zm-.366.903a1.037 1.037 0 0 1-.32.17l-.024-.108a.902.902 0 0 0 .264-.132l.08.07zm.053.093a1.151 1.151 0 0 1-.319.168l.083.077c.093-.034.18-.08.261-.133l-.025-.112zm-.144-.622l-.106.045-.194-.215.064-.091.236.261zm.082-.066l.063-.092-.193-.215-.106.045.236.262zm-1.327-.571l.033.106h.299l.032-.106h-.364zm1.395 0l-.033.106h-.298l-.032-.106h.363zm-.767 1.44c0-.038.033-.07.074-.07.041 0 .074.032.074.07 0 .04-.033.07-.074.07-.04 0-.074-.03-.074-.07zm.126-.51l.111-.032v-.282l-.111-.03v.343zm-.108 0l-.111-.032v-.282l.11-.03v.343z"/><path d="M7.714 15.05a.17.17 0 0 1 .118-.124v-.349h.107v.35a.166.166 0 0 1 .11.107h.29v.016h-.39a.076.076 0 0 0-.131.002l-.104-.002zm.805 0v-.015h.27a.156.156 0 0 1 .011-.026l-.332-.37.082-.066.328.364a.154.154 0 0 1 .017-.007v-.485h.108v.482l.017.004.32-.365.082.065-.321.364a.151.151 0 0 1 .018.04h.26v.015h-.86zm1.425 0a.076.076 0 0 1 .066-.037c.029 0 .054.016.066.039l.103-.002a.17.17 0 0 0-.118-.124l.001-.348h-.107v.35a.166.166 0 0 0-.11.106h-.29v.016h.389zm-1.988-.984l.4.448.081-.066-.401-.446a.166.166 0 0 0 .018-.04h.292v-.101h-.292a.172.172 0 0 0-.165-.113.169.169 0 0 0-.173.164c0 .071.048.133.116.155v.345h.107v-.343c.005-.001.013-.001.017-.003zm2.107.002v.344h-.108v-.345a.162.162 0 0 1-.024-.01l-.397.449-.082-.066.404-.457c-.003-.006-.007-.013-.009-.02h-.294v-.102h.293a.172.172 0 0 1 .164-.113c.096 0 .174.073.174.164 0 .073-.05.135-.12.156zm-1.06 0v.21h-.107v-.21a.17.17 0 0 1-.113-.105H8.52v-.102h.262a.171.171 0 0 1 .164-.113.17.17 0 0 1 .164.113h.268v.102H9.11a.167.167 0 0 1-.107.104zm-1.17.256l-.112.031v.284l.112.03v-.345zm.108 0l.11.031v.284l-.11.03v-.345zm2.013 0l-.111.031v.284l.11.03v-.345zm.108 0l.111.031v.284l-.111.03v-.345zm-1.685.056l.106-.045.193.215-.063.092-.236-.262zm-.082.067l-.064.092.194.215.106-.045-.236-.262zm1.216-.075l-.106-.044-.192.217.065.09.233-.263zm.083.066l.064.091-.192.217-.105-.044.233-.264zm-1.342.596l.033-.105h.299l.032.105h-.364zm-.437-1.122c0-.039.033-.07.074-.07.04 0 .074.031.074.07 0 .039-.033.07-.074.07a.072.072 0 0 1-.074-.07zm.798.05l-.033.107h-.298l-.032-.106h.363zm0-.102l-.033-.105h-.298l-.032.105h.363zm1.034 1.174l-.033-.105h-.298l-.032.105h.363zm.29-1.122a.07.07 0 0 1 .073-.07c.041 0 .074.031.074.07 0 .039-.033.07-.074.07a.072.072 0 0 1-.074-.07zm-1.064 0c0-.039.033-.07.074-.07.04 0 .074.031.074.07 0 .039-.033.07-.074.07a.072.072 0 0 1-.074-.07zm.413.05l.033.107h.298l.033-.106h-.364zm0-.102l.033-.105h.298l.033.105h-.364zm-.39.331l-.11.031v.283l.11.031v-.345zm.107 0l.111.031v.283l-.11.031v-.345z"/></g><path d="M5.027 16.758c.094.049.224.13.363.163l-.009-3.348h-.354v3.185zm1.03.253v-3.438h-.364v3.438c.143.014.249.011.364 0zm.303-.09c.139-.027.295-.111.364-.155v-3.193h-.355l-.009 3.348zm.676-.437c.151-.128.294-.421.345-.755l.01-2.156h-.364l.009 2.911zm-2.285 0c-.151-.128-.294-.421-.346-.755l-.009-2.156h.364l-.01 2.911z" fill="#C8A200"/><path d="M7.345 12.533c.523 0 .946.49.946 1.092 0 .603-.423 1.092-.946 1.092-.522 0-.945-.49-.945-1.092 0-.603.423-1.092.945-1.092z" fill="#E94B35"/><path d="M7.358 12.8c.381 0 .69.358.69.8 0 .443-.309.801-.69.801-.382 0-.691-.358-.691-.8 0-.443.309-.801.69-.801z" fill="#346DA6"/><path d="M7.057 13.067s-.08.094-.08.181c0 .088.034.161.034.161a.088.088 0 0 0-.083-.06.089.089 0 0 0-.088.09c0 .015.008.037.014.05l.029.062a.06.06 0 0 1 .058-.036.064.064 0 0 1 .061.08H6.93v.066h.064l-.047.102.063-.026.047.057.05-.057.063.026-.048-.102h.064v-.065h-.072a.062.062 0 0 1-.001-.016c0-.036.028-.065.062-.065.027 0 .049.013.059.036l.028-.062a.136.136 0 0 0 .014-.05c0-.05-.039-.09-.088-.09a.088.088 0 0 0-.083.06s.034-.073.034-.16c0-.088-.082-.182-.082-.182zm.667 0s-.08.094-.08.181c0 .088.034.161.034.161a.088.088 0 0 0-.083-.06.089.089 0 0 0-.088.09c0 .015.008.037.014.05l.028.062a.06.06 0 0 1 .059-.036c.034 0 .062.029.062.065l-.001.015h-.072v.066h.064l-.048.102.063-.026.048.057.05-.057.062.026-.047-.102h.064v-.065H7.78a.06.06 0 0 1-.002-.016c0-.036.028-.065.063-.065.026 0 .049.013.058.036l.029-.062a.135.135 0 0 0 .014-.05.09.09 0 0 0-.088-.09.088.088 0 0 0-.083.06s.034-.073.034-.16c0-.088-.082-.182-.082-.182zm-.4.533s-.08.094-.08.182.034.16.034.16a.088.088 0 0 0-.083-.06.089.089 0 0 0-.088.09c0 .015.008.038.014.05l.029.062a.06.06 0 0 1 .057-.036.064.064 0 0 1 .062.08l-.072.001v.066h.064l-.048.102.063-.027.048.058.05-.058.062.027-.047-.102h.064v-.066H7.38a.063.063 0 0 1-.002-.016c0-.036.028-.065.063-.065a.06.06 0 0 1 .058.036l.029-.062a.137.137 0 0 0 .014-.05.09.09 0 0 0-.088-.09.089.089 0 0 0-.083.06s.034-.072.034-.16c0-.088-.082-.182-.082-.182z" fill="#F2C500"/><path d="M10.963 10.63s.05.078.05.15c0 .07-.05.142-.05.142H12s-.09-.061-.09-.143c0-.081.09-.148.09-.148h.11v-.364H10.8v.364h.163zm0 6.073s.05-.078.05-.149a.294.294 0 0 0-.05-.142H12s-.09.06-.09.142c0 .081.09.149.09.149h.11v.364H10.8v-.364h.163z" fill="#C8A200"/><path fill="#FFF" d="M10.934 10.933H12V16.4h-1.067z"/><path d="M12.122 16.977a.549.549 0 0 0-.225-.044.557.557 0 0 0-.228.045.546.546 0 0 1-.23.045.52.52 0 0 1-.228-.048.554.554 0 0 0-.222-.042.537.537 0 0 0-.225.043.545.545 0 0 1-.23.047v.662c.09 0 .17-.019.23-.047a.54.54 0 0 1 .225-.043c.085 0 .163.016.222.042a.525.525 0 0 0 .229.048.55.55 0 0 0 .229-.046.55.55 0 0 1 .228-.044.55.55 0 0 1 .225.044c.06.029.138.046.228.046l.002-.662a.535.535 0 0 1-.23-.046z" fill="#227FBB"/><path d="M11.37 12.802a3.007 3.007 0 0 1 1.016.188l-.397.118.026.451s.263-.004.472-.064c.184-.053.323-.14.32-.127 0 .004.206-.484.209-.502.038-.203-.445-.452-1.08-.556a3.336 3.336 0 0 0-.562-.043c-.406 0-.789.039-1.002.116l-.002.568c.209-.085.594-.136 1-.149zm.932 1.305a6.837 6.837 0 0 1-.472-.195 3.82 3.82 0 0 1-.893-.57v.47c-.045.085.295.336.758.557.148.07.461.186.61.238.119.041.368.162.368.162s-.333.184-.025.536c.025-.21.255-.296.247-.276v-.565c.025-.075-.231-.225-.593-.357z" fill="#E94B35"/><path d="M11.067 9.997c-.015-.01-.06-.063-.06-.063l-.037-.032-.034-.057s-.039-.077-.02-.137a.158.158 0 0 1 .075-.1c.027-.017.085-.038.085-.038s.046-.025.06-.029c.016-.003.07-.02.07-.02s.016-.011.03-.018c.016-.007.037-.007.05-.011.012-.004.042-.016.06-.017.029-.001.073.006.089.006l.088.004c.02 0 .097-.007.118-.007.021 0 .036-.003.06 0a.308.308 0 0 1 .08.028c.012.007.085.04.112.05.027.01.094.024.125.042.03.018.049.047.064.072.015.025.018.052.024.07a.155.155 0 0 1 0 .073c-.006.017-.028.054-.028.054l-.033.067-.042.042s-.031.036-.055.032c-.025-.003-.055.077-.425.077-.371 0-.43-.077-.43-.077s-.011 0-.026-.01z" fill="#CA4638"/><path d="M11.195 9.762l-.015-.09c-.08-.102-.155-.169-.18-.154.006-.02.013-.033.029-.042.071-.041.22.057.33.219l.029.044h.081s-.063-.15-.03-.223c.011-.024.05-.02.05-.02v-.082h-.046v-.028h.047v-.05h.034v.05h.044v.028h-.046s0 .069.002.082c.005 0 .044 0 .055.021.026.045-.027.222-.027.222h.078l.028-.044c.111-.162.26-.26.331-.219.016.009.023.023.03.042-.026-.014-.1.052-.181.155l-.011.067.011.021a.036.036 0 0 0-.006.022c0 .027.029.049.064.049a.071.071 0 0 0 .053-.022l.014-.014v.017c0 .017.008.032.029.035 0 0 .023 0 .055-.019a.33.33 0 0 0 .048-.036l.002.02s-.03.04-.059.053c-.015.007-.057.137-.076.134-.001 0-.21-.05-.446-.05-.224 0-.437.06-.446.062-.018.002-.06-.139-.076-.146-.028-.013-.06-.053-.06-.053l.004-.02s.017.017.048.036c.031.02.055.019.055.019a.034.034 0 0 0 .03-.035l-.001-.017.013.014a.073.073 0 0 0 .054.022c.032 0 .058-.018.063-.042l-.005-.028zm-8.365.868s.05.078.05.15c0 .07-.05.142-.05.142h1.036s-.09-.061-.09-.143c0-.081.09-.148.09-.148h.11v-.364h-1.31v.364h.164zm0 6.073s.05-.078.05-.149a.294.294 0 0 0-.05-.142h1.036s-.09.06-.09.142c0 .081.09.149.09.149h.11v.364h-1.31v-.364h.164z" fill="#C8A200"/><path fill="#FFF" d="M2.8 10.933h1.067V16.4H2.8z"/><path d="M3.99 16.977a.549.549 0 0 0-.227-.044.557.557 0 0 0-.228.045.546.546 0 0 1-.229.045.529.529 0 0 1-.229-.048.554.554 0 0 0-.221-.042.537.537 0 0 0-.225.043.545.545 0 0 1-.231.047v.662c.09 0 .172-.019.23-.047a.54.54 0 0 1 .226-.043c.085 0 .163.016.221.042.06.029.14.048.23.048a.55.55 0 0 0 .228-.046.55.55 0 0 1 .228-.044c.088 0 .167.017.226.044.06.029.138.046.228.046l.001-.662a.535.535 0 0 1-.229-.046z" fill="#227FBB"/><path d="M3.43 12.802a3.007 3.007 0 0 0-1.016.188l.397.118-.026.451s-.263-.004-.472-.064c-.184-.053-.323-.14-.32-.127 0 .004-.206-.484-.209-.502-.038-.203.445-.452 1.08-.556a3.35 3.35 0 0 1 .562-.043c.406 0 .789.039 1.002.116l.002.568c-.209-.085-.594-.136-1-.149zm-.932 1.305c.166-.06.303-.12.472-.195a3.82 3.82 0 0 0 .893-.57v.47c.045.085-.295.336-.758.557-.148.07-.461.186-.61.238-.119.041-.368.162-.368.162s.333.184.025.536c-.025-.21-.255-.296-.247-.276v-.565c-.025-.075.231-.225.593-.357z" fill="#E94B35"/><path d="M2.867 9.997c-.015-.01-.06-.063-.06-.063l-.037-.032-.034-.057s-.039-.077-.02-.137a.158.158 0 0 1 .075-.1c.027-.017.085-.038.085-.038s.046-.025.06-.029c.016-.003.07-.02.07-.02s.016-.011.03-.018c.016-.007.037-.007.05-.011.012-.004.042-.016.06-.017.029-.001.073.006.089.006l.088.004c.02 0 .097-.007.118-.007.021 0 .036-.003.06 0a.308.308 0 0 1 .08.028c.012.007.085.04.112.05.027.01.094.024.125.042.03.018.049.047.064.072.015.025.018.052.024.07a.155.155 0 0 1 0 .073c-.006.017-.028.054-.028.054l-.033.067-.042.042s-.031.036-.055.032c-.025-.003-.055.077-.425.077-.371 0-.43-.077-.43-.077s-.011 0-.026-.01z" fill="#CA4638"/><path d="M2.995 9.762l-.015-.09c-.08-.102-.155-.169-.18-.154.006-.02.013-.033.029-.042.071-.041.22.057.33.219l.029.044h.081s-.063-.15-.03-.223c.011-.024.05-.02.05-.02v-.082h-.046v-.028h.047v-.05h.034v.05h.044v.028h-.046s0 .069.002.082c.005 0 .044 0 .055.021.026.045-.027.222-.027.222h.078l.028-.044c.111-.162.26-.26.331-.219.016.009.023.023.03.042-.026-.014-.1.052-.181.155l-.011.067.011.021a.036.036 0 0 0-.006.022c0 .027.029.049.064.049a.071.071 0 0 0 .053-.022l.014-.014v.017c0 .017.008.032.029.035 0 0 .023 0 .055-.019a.33.33 0 0 0 .048-.036l.002.02s-.03.04-.059.053c-.015.007-.057.137-.076.134-.001 0-.21-.05-.446-.05-.224 0-.437.06-.446.062-.018.002-.06-.139-.076-.146-.028-.013-.06-.053-.06-.053l.004-.02s.017.017.048.036c.031.02.055.019.055.019a.034.034 0 0 0 .03-.035l-.001-.017.013.014a.073.073 0 0 0 .054.022c.032 0 .058-.018.063-.042l-.005-.028z" fill="#C8A200"/><g transform="translate(4.533 6.133)"><path d="M3.904 1.614c.13.059.305.102.496.127.145.02.284.024.404.015a1.57 1.57 0 0 1 .627.146c.192.085.353.188.46.288l-.093.082-.026.233-.254.29-.127.107-.3.24-.153.012-.047.132s.54.693-1.885.651C.58 3.895 1 3.287 1 3.287l-.047-.133L.8 3.14.5 2.9l-.127-.106-.254-.29-.026-.233L0 2.19a1.7 1.7 0 0 1 .46-.288 1.57 1.57 0 0 1 .627-.146c.12.009.259.005.404-.015.191-.025.366-.068.496-.127.227-.09.557-.147.949-.147.392 0 .74.058.968.147z" fill="#E94B35"/><circle fill="#346DA6" cx="2.867" cy=".467" r="1"/><path d="M1.468 2.084a.33.33 0 0 0-.012.123s-.012-.013-.053-.02c-.041-.009-.07.002-.07.002s.031.055.044.075c.013.019.035.081.069.133a.463.463 0 0 0 .024.033.532.532 0 0 0-.037-.01c-.046-.013-.126-.013-.15-.013l-.073-.002s.004.01.018.034a.327.327 0 0 0 .031.047.333.333 0 0 0-.192.13.352.352 0 0 0 .228.06s-.007.022-.012.055c-.004.027-.004.038-.004.038l.067-.025c.023-.008.098-.034.137-.06a.319.319 0 0 1 .054-.028.24.24 0 0 1 .027.117c0 .141-.125.256-.28.256a.287.287 0 0 1-.233-.114l-.059-.073v.09c0 .088-.038.168-.128.182 0 0-.103.006-.24-.097a1.88 1.88 0 0 1-.11-.09c.01-.002.018-.001.02.005.025.005.066.011.102.014.05.003.131-.01.157-.014l.074-.01s-.006-.01-.026-.029a.665.665 0 0 0-.048-.043.287.287 0 0 0 .152-.134.48.48 0 0 0-.223-.028s.002-.019 0-.049c0-.025-.002-.035-.002-.035s-.04.028-.08.046a.488.488 0 0 0-.146.097c-.03.038-.049.094-.049.094s.04-.131.003-.222C.412 2.528.333 2.51.333 2.51l-.013.063a.172.172 0 0 0-.082-.055L.4 2.226a.467.467 0 0 1-.12-.546c.103-.231.456-.403.878-.403.08 0 .159.007.234.019a.565.565 0 0 0 .136.674l-.006.008a.322.322 0 0 0-.004-.002.331.331 0 0 0-.042.078l-.015.025.006.005zm.134-.031a.318.318 0 0 1 .058.118s.008-.016.043-.038c.036-.021.067-.02.067-.02s-.01.062-.016.084c-.005.022-.005.089-.019.15a.469.469 0 0 1-.01.037c.04-.022.101-.043.121-.05l.068-.025s0 .011-.004.038a.318.318 0 0 1-.013.054.351.351 0 0 1 .229.061.334.334 0 0 1-.192.13.42.42 0 0 0 .049.08H1.91c-.024-.001-.104-.001-.15-.013a.684.684 0 0 1-.084-.029l.002.001a.256.256 0 0 0-.002.033c0 .148.13.268.292.268.145 0 .272-.091.291-.227.004.002.003-.1.013-.102.012 0 .036.1.04.096a.292.292 0 0 0 .28.185c.161 0 .292-.12.292-.268a.24.24 0 0 0-.014-.093l.01-.002-.017-.06c-.047.013-.097.025-.087.036 0 0-.052.036-.108.06-.043.02-.123.032-.147.037l-.072.013s.002-.012.01-.036a.354.354 0 0 1 .023-.05.355.355 0 0 1-.215-.096.352.352 0 0 1 .215-.096s-.01-.02-.022-.05a.246.246 0 0 1-.011-.036l.072.013c.024.004.104.017.147.036.056.025.107.061.107.061-.008.009.025.019.064.03-.009-.024-.016-.036-.021-.03 0 0-.038-.044-.065-.102-.028-.058-.042-.125-.052-.146-.01-.021-.034-.082-.034-.082s.034-.006.079.01c.045.014.056.03.056.03l.004-.029-.273-.252c.044-.112.074-.296.078-.504l.003-.036v-.03a1.9 1.9 0 0 1 .004-.103.983.983 0 0 0-.443-.1c-.401 0-.717.218-.73.481a.469.469 0 0 0 .224.45l-.067.113zm1.026-1.05l.01-.066c.022-.092.118-.16.224-.16.107 0 .2.068.221.16.005.03.01.061.013.094a1.09 1.09 0 0 1 .512-.122c.31 0 .573.12.719.295a1.57 1.57 0 0 1 .296-.028c.461 0 .849.193.973.458a.565.565 0 0 1-.085.61l.155.297h.01a.17.17 0 0 1 .175.169s-.128-.01-.204.03c-.076.04-.14.162-.14.162-.001-.002-.01.003-.018.008l.002.02s-.114.17-.237.24a.437.437 0 0 1-.252.065c-.087-.014-.148-.08-.18-.158a.429.429 0 0 1-.212.056c-.167 0-.318-.09-.377-.223a.44.44 0 0 1-.642-.018A.44.44 0 0 1 3.3 3a.434.434 0 0 1-.355-.176.433.433 0 0 1-.354.176.44.44 0 0 1-.29-.107.44.44 0 0 1-.333.147.422.422 0 0 1-.31-.13.408.408 0 0 1-.377.223.427.427 0 0 1-.212-.056c-.032.077-.094.144-.18.158a.438.438 0 0 1-.252-.065C.513 3.1.4 2.93.4 2.93v-.007c-.026-.026-.054-.055-.056-.052 0 0-.064-.122-.14-.162C.128 2.668 0 2.679 0 2.679c0-.075.049-.139.119-.161l.152-.274a.569.569 0 0 1-.085-.61c.124-.265.512-.458.973-.458.103 0 .202.01.296.028.146-.175.41-.295.72-.295.167 0 .323.035.453.094zm.379.948c.018.035.03.073.033.111 0 0 .012-.015.057-.03.044-.015.079-.01.079-.01s-.024.062-.035.083c-.01.021-.023.088-.051.146a.47.47 0 0 1-.065.101c-.005-.005-.009.005-.012.024.035-.008.061-.016.054-.023 0 0 .051-.036.108-.06.043-.02.123-.033.147-.037l.072-.013s-.002.01-.011.036a.498.498 0 0 1-.023.05.35.35 0 0 1 .216.096.354.354 0 0 1-.216.095.372.372 0 0 0 .034.087l-.072-.013c-.024-.005-.104-.018-.147-.037-.057-.024-.108-.06-.108-.06.007-.008-.024-.016-.065-.026 0 .015-.002.031-.004.048l.023.004a.243.243 0 0 0-.015.093c0 .148.132.268.294.268.13 0 .24-.077.279-.185.004.003.028-.097.04-.096.01.001.009.104.013.102.019.136.146.227.29.227.162 0 .293-.12.293-.268 0-.01 0-.022-.002-.033l.044-.042v-.037c-.029-.005-.048-.013-.041-.003 0 0-.057.028-.117.044a.805.805 0 0 1-.15.012l-.073.002s.004-.011.018-.035c.017-.028.031-.046.031-.046a.334.334 0 0 1-.192-.13.35.35 0 0 1 .228-.061s-.007-.022-.012-.054c-.004-.027-.004-.038-.004-.038l.068.025c.022.008.098.033.136.06.043.028.08.063.09.074a.521.521 0 0 1-.035-.102c-.014-.06-.014-.128-.02-.15a2.211 2.211 0 0 1-.015-.084l.02.002-.076-.128a.469.469 0 0 0 .224-.45c-.013-.263-.33-.48-.73-.48a.949.949 0 0 0-.501.133l.002.068v.03l.002.037c.004.208.034.392.078.504l-.181.169zm1.298.104a.356.356 0 0 1 .114-.125.338.338 0 0 1 .063.23s.013-.012.054-.02c.04-.008.07.003.07.003l-.044.074c-.013.02-.036.082-.07.134a.516.516 0 0 1-.073.088c-.002-.003-.005-.002-.009.004.014-.002.021-.004.018-.01 0 0 .056-.027.116-.043a.805.805 0 0 1 .15-.012 16 16 0 0 1 .072-.002s-.003.011-.017.035c-.017.028-.032.046-.032.046.08.018.149.07.192.13a.351.351 0 0 1-.228.061s.008.022.013.054c.004.027.003.038.003.038l-.067-.025c-.023-.008-.098-.033-.137-.06a.708.708 0 0 1-.093-.077c.008-.007-.017.004-.049.007a2.937 2.937 0 0 1-.013.034l.016.037a.236.236 0 0 0-.027.117c0 .141.125.256.28.256a.287.287 0 0 0 .233-.114l.058-.073v.09c0 .088.039.168.129.182 0 0 .103.006.24-.097a1.9 1.9 0 0 0 .072-.058c-.011-.003-.02-.003-.022.005a.878.878 0 0 1-.102.013c-.05.003-.132-.01-.156-.013l-.075-.01s.006-.01.025-.03l.049-.043a.287.287 0 0 1-.152-.135.479.479 0 0 1 .223-.028s-.002-.018-.001-.048l.003-.036s.04.028.08.047c.04.018.116.059.145.096a.485.485 0 0 1 .05.123l.003-.003c-.014-.073-.03-.189-.006-.248a.172.172 0 0 1 .115-.106l.013.062a.156.156 0 0 1 .034-.03l-.184-.35a.467.467 0 0 0 .12-.545c-.103-.231-.456-.403-.878-.403-.08 0-.16.007-.234.019a.46.46 0 0 1 .057.194.564.564 0 0 1-.192.48l.051.085zm-.022.054a.277.277 0 0 0-.004.016l-.006-.008.01-.008zm-.033.307c-.002-.008-.004-.01-.008-.008v-.002c-.002.003.001.006.008.01zM1.095 3.625c.018-.009-.069-.068-.11-.144a.481.481 0 0 1-.052-.19c.516-.152 1.234-.247 2.034-.248.8 0 1.523.096 2.04.248 0 0-.024.1-.073.19-.038.07-.107.136-.09.144-.467-.144-1.142-.236-1.88-.238-.74.002-1.402.094-1.869.238zM2.788.108h-.14v.11h.14v.317h-.175C2.61.545 2.6.553 2.6.563c0 .028.007.055.02.079l.002.001h.465L3.09.642a.165.165 0 0 0 .02-.079c0-.01-.01-.018-.013-.028h-.17V.218h.14v-.11h-.14V0h-.138v.108z" fill="#C8A200"/></g></g></svg>