<svg width="90" height="110" viewBox="0 0 90 110" xmlns="http://www.w3.org/2000/svg"><title>Logos/Mark/T2A-Mark-white</title><path d="M63.527 25.299C69.071 30.18 72 37.599 72 46.757c0 19.947-23.23 43.32-24.22 44.304A3.23 3.23 0 0 1 45.5 92a3.23 3.23 0 0 1-2.28-.939C42.23 90.077 19 66.704 19 46.757 19 37.6 21.93 30.18 27.473 25.3 32.085 21.238 38.488 19 45.5 19c7.012 0 13.415 2.238 18.027 6.299zM58.13 61.837c-.581-.586-1.308-.88-2.18-.88H44.73l6.918-7.415c1.997-2.16 3.586-4.422 4.766-6.784 1.18-2.362 1.77-4.66 1.77-6.893 0-2.27-.49-4.303-1.47-6.097-.981-1.795-2.379-3.205-4.194-4.23C50.703 28.513 48.597 28 46.2 28c-1.67 0-3.413.421-5.228 1.263a16.42 16.42 0 0 0-4.793 3.351c-.727.732-1.271 1.382-1.634 1.95-.363.568-.545 1.126-.545 1.675 0 .77.336 1.465 1.008 2.088.671.622 1.407.934 2.206.934 1.016 0 1.851-.44 2.505-1.319.871-1.172 1.843-2.115 2.914-2.829 1.071-.714 2.133-1.07 3.186-1.07 1.525 0 2.869.603 4.03 1.812 1.163 1.208 1.744 2.637 1.744 4.284 0 1.246-.39 2.61-1.171 4.093s-1.843 2.957-3.187 4.422L35.362 61.452c-.654.696-.98 1.502-.98 2.417 0 .916.272 1.666.816 2.252.545.586 1.29.879 2.233.879H55.95c.871 0 1.598-.284 2.179-.851.58-.568.871-1.273.871-2.115 0-.88-.29-1.611-.871-2.197z" fill="#FFF" fill-rule="evenodd"/></svg>