<svg width="472" height="73" viewBox="0 0 472 73" xmlns="http://www.w3.org/2000/svg"><title>Logos/Full/T2A-black</title><path d="M10.704 49V22.312H.576V15.16H29.76v7.152H19.632V49h-8.928zm50.169-3.485l10.279-13.603L58.48 15.16h10.272l7.392 10.368 7.488-10.368h10.224l-12.72 16.752L94.096 49h-10.32l-7.632-10.656L68.464 49H53.768l-3.024-7.008H35.768L32.744 49h-8.88l15.792-33.84h7.008l14.209 30.355zM38.6 35.368h9.312L43.256 24.52 38.6 35.368zM97.328 49V15.16h8.832V49h-8.832zm102.52 0l-3.024-7.008h-14.976L178.824 49h-8.88l15.792-33.84h7.008L208.584 49h-8.736zM184.68 35.368h9.312l-4.656-10.848-4.656 10.848zM210.6 49V15.16h8.832V49H210.6zm45.408 0h-9.696l-5.856-10.8c-.736-1.248-1.904-1.872-3.504-1.872h-2.688V49h-8.688V15.16h16.128c4.096 0 7.176.888 9.24 2.664 2.064 1.776 3.096 4.344 3.096 7.704 0 2.56-.704 4.728-2.112 6.504-1.408 1.776-3.392 2.968-5.952 3.576 1.952.416 3.504 1.68 4.656 3.792l5.376 9.6zm-11.496-20.208c.848-.608 1.272-1.6 1.272-2.976 0-1.408-.424-2.424-1.272-3.048-.848-.624-2.248-.936-4.2-.936h-6.144v7.872h6.144c1.952 0 3.352-.304 4.2-.912zm15-13.632h16.368c3.744 0 6.656.952 8.736 2.856 2.08 1.904 3.12 4.552 3.12 7.944 0 3.36-1.048 6-3.144 7.92s-5 2.88-8.712 2.88h-7.536V49h-8.832V15.16zm15.168 14.976c1.632 0 2.84-.336 3.624-1.008.784-.672 1.176-1.712 1.176-3.12 0-1.408-.392-2.456-1.176-3.144-.784-.688-1.992-1.032-3.624-1.032h-6.336v8.304h6.336zm24.408 17.16c-2.544-1.424-4.504-3.44-5.88-6.048-1.376-2.608-2.064-5.672-2.064-9.192 0-3.52.688-6.584 2.064-9.192 1.376-2.608 3.336-4.616 5.88-6.024 2.544-1.408 5.544-2.112 9-2.112 3.456 0 6.456.704 9 2.112 2.544 1.408 4.496 3.416 5.856 6.024 1.36 2.608 2.04 5.672 2.04 9.192 0 3.52-.688 6.584-2.064 9.192-1.376 2.608-3.336 4.624-5.88 6.048-2.544 1.424-5.528 2.136-8.952 2.136-3.456 0-6.456-.712-9-2.136zm15-7.344c1.44-1.808 2.16-4.44 2.16-7.896 0-3.456-.728-6.08-2.184-7.872-1.456-1.792-3.448-2.688-5.976-2.688-2.56 0-4.56.888-6 2.664-1.44 1.776-2.16 4.408-2.16 7.896 0 3.488.72 6.128 2.16 7.92 1.44 1.792 3.44 2.688 6 2.688s4.56-.904 6-2.712zM360.648 49h-9.696l-5.856-10.8c-.736-1.248-1.904-1.872-3.504-1.872h-2.688V49h-8.688V15.16h16.128c4.096 0 7.176.888 9.24 2.664 2.064 1.776 3.096 4.344 3.096 7.704 0 2.56-.704 4.728-2.112 6.504-1.408 1.776-3.392 2.968-5.952 3.576 1.952.416 3.504 1.68 4.656 3.792l5.376 9.6zm-11.496-20.208c.848-.608 1.272-1.6 1.272-2.976 0-1.408-.424-2.424-1.272-3.048-.848-.624-2.248-.936-4.2-.936h-6.144v7.872h6.144c1.952 0 3.352-.304 4.2-.912zM371.784 49V22.312h-10.128V15.16h29.184v7.152h-10.128V49h-8.928zM159.527 6.299c5.544 4.881 8.473 12.3 8.473 21.458 0 19.947-23.23 43.32-24.22 44.304a3.23 3.23 0 0 1-2.28.939 3.23 3.23 0 0 1-2.28-.939c-.99-.984-24.22-24.357-24.22-44.304 0-9.157 2.93-16.577 8.473-21.458C128.085 2.238 134.488 0 141.5 0c7.012 0 13.415 2.238 18.027 6.299zM153.95 42.83c-.587-.587-1.32-.88-2.2-.88h-11.33l6.985-7.425c2.017-2.163 3.62-4.427 4.813-6.793 1.191-2.365 1.787-4.665 1.787-6.902 0-2.273-.495-4.308-1.485-6.105-.99-1.797-2.402-3.208-4.235-4.235-1.833-1.027-3.96-1.54-6.38-1.54-1.687 0-3.447.422-5.28 1.265a16.583 16.583 0 0 0-4.84 3.355c-.733.733-1.283 1.384-1.65 1.952-.367.569-.55 1.128-.55 1.678 0 .77.34 1.467 1.017 2.09.679.623 1.421.935 2.228.935 1.027 0 1.87-.44 2.53-1.32.88-1.173 1.86-2.117 2.942-2.833 1.082-.715 2.155-1.072 3.218-1.072 1.54 0 2.897.605 4.07 1.815 1.173 1.21 1.76 2.64 1.76 4.29 0 1.247-.394 2.612-1.183 4.097-.788 1.486-1.86 2.961-3.217 4.428l-11.99 12.815c-.66.697-.99 1.503-.99 2.42s.275 1.668.825 2.255c.55.587 1.302.88 2.255.88h18.7c.88 0 1.613-.284 2.2-.852.587-.569.88-1.275.88-2.118 0-.88-.293-1.613-.88-2.2zm246.85 4.89c-1.799-1.723-2.698-4.066-2.698-7.03 0-1.95.437-3.673 1.311-5.168.874-1.495 2.103-2.647 3.686-3.458 1.583-.81 3.414-1.216 5.491-1.216 1.393 0 2.742.203 4.047.608 1.305.405 2.362.95 3.173 1.634l-1.71 4.56c-.633-.507-1.4-.918-2.299-1.235-.9-.317-1.742-.475-2.527-.475-1.368 0-2.413.38-3.135 1.14-.722.76-1.083 1.913-1.083 3.458 0 1.545.361 2.71 1.083 3.496.722.785 1.767 1.178 3.135 1.178.785 0 1.628-.158 2.527-.475.9-.317 1.666-.741 2.299-1.273l1.71 4.598c-.861.71-1.957 1.26-3.287 1.653-1.33.393-2.742.589-4.237.589-3.192 0-5.687-.861-7.486-2.584zm21.185 1.387c-1.558-.798-2.761-1.932-3.61-3.401-.849-1.47-1.273-3.192-1.273-5.168s.424-3.692 1.273-5.149c.849-1.457 2.046-2.578 3.591-3.363 1.545-.785 3.357-1.178 5.434-1.178s3.889.393 5.434 1.178c1.545.785 2.742 1.906 3.591 3.363.849 1.457 1.273 3.173 1.273 5.149s-.424 3.699-1.273 5.168c-.849 1.47-2.046 2.603-3.591 3.401-1.545.798-3.357 1.197-5.434 1.197-2.052 0-3.857-.399-5.415-1.197zm9.025-8.569c0-3.141-1.203-4.712-3.61-4.712s-3.61 1.57-3.61 4.712c0 3.141 1.203 4.712 3.61 4.712s3.61-1.57 3.61-4.712zm38.475-7.714c1.051 1.317 1.577 3.344 1.577 6.08V50h-6.764V39.094c0-1.09-.165-1.875-.494-2.356-.33-.481-.874-.722-1.634-.722-.937 0-1.653.33-2.147.988-.494.659-.741 1.596-.741 2.812V50h-6.764V39.094c0-1.09-.165-1.875-.494-2.356-.33-.481-.874-.722-1.634-.722-.937 0-1.647.33-2.128.988-.481.659-.722 1.596-.722 2.812V50h-6.764V31.304h6.574v2.356c1.241-1.875 3.141-2.812 5.7-2.812 2.685 0 4.497 1.102 5.434 3.306a6.954 6.954 0 0 1 2.603-2.432c1.077-.583 2.261-.874 3.553-.874 2.179 0 3.794.659 4.845 1.976zM392.5 50a3.5 3.5 0 1 1 0-7 3.5 3.5 0 0 1 0 7z" fill-rule="evenodd"/></svg>