<svg xmlns="http://www.w3.org/2000/svg" width="90" height="110" viewBox="0 0 90 110"><title>Logos/Mark/T2A-Mark-color</title><g fill="none" fill-rule="evenodd"><path d="M63.527 25.299C58.915 21.238 52.512 19 45.5 19c-7.012 0-13.415 2.238-18.027 6.299C21.929 30.18 19 37.599 19 46.757c0 19.947 23.23 43.32 24.22 44.304A3.23 3.23 0 0 0 45.5 92a3.23 3.23 0 0 0 2.28-.939C48.77 90.077 72 66.704 72 46.757 72 37.6 69.07 30.18 63.527 25.3" fill="#F05145"/><path d="M58.129 61.837c.58.586.871 1.318.871 2.197 0 .842-.29 1.547-.871 2.115-.581.567-1.308.851-2.18.851H37.432c-.944 0-1.688-.293-2.233-.879-.544-.586-.817-1.336-.817-2.252 0-.915.327-1.721.98-2.417l11.874-12.798c1.344-1.465 2.406-2.94 3.187-4.422.78-1.483 1.17-2.847 1.17-4.093 0-1.647-.58-3.076-1.742-4.284-1.162-1.209-2.506-1.813-4.03-1.813-1.054 0-2.116.357-3.187 1.071-1.071.714-2.043 1.657-2.914 2.83-.654.878-1.489 1.318-2.505 1.318-.8 0-1.535-.312-2.206-.934-.672-.623-1.008-1.319-1.008-2.088 0-.549.182-1.107.545-1.675.363-.568.907-1.218 1.634-1.95a16.42 16.42 0 0 1 4.793-3.35C42.787 28.42 44.53 28 46.2 28c2.397 0 4.503.513 6.319 1.538 1.815 1.025 3.213 2.435 4.193 4.23.98 1.794 1.471 3.826 1.471 6.097 0 2.234-.59 4.531-1.77 6.893-1.18 2.362-2.769 4.624-4.766 6.784l-6.917 7.416h11.22c.871 0 1.598.293 2.179.879z" fill="#FFF"/></g></svg>